<?xml version="1.0" encoding="UTF-8"?>
<svg width="184px" height="371px" viewBox="0 0 184 371" version="1.1" xmlns="http://www.w3.org/2000/svg" xmlns:xlink="http://www.w3.org/1999/xlink">
    <!-- Generator: Sketch 52.6 (67491) - http://www.bohemiancoding.com/sketch -->
    <title>Car-yellow Copy 4</title>
    <desc>Created with Sketch.</desc>
    <g id="Floston" stroke="none" stroke-width="1" fill="none" fill-rule="evenodd">
        <g id="4peak-1280" transform="translate(-680.000000, -6760.000000)">
            <g id="Part-3" transform="translate(2.000000, 4681.000000)">
                <g id="Group-9" transform="translate(150.000000, 2079.000000)">
                    <g id="Car-yellow-Copy-4" transform="translate(528.000000, 0.000000)">
                        <path d="M170.041379,141.68163 L170.041379,318.447606 C170.041379,347.471492 146.465538,371 117.374482,371 L64.0875872,371 C35.0004629,371 11.4206897,347.475548 11.4206897,318.447606 L11.4206897,142.080114 L0,145.297782 C0,145.297782 0.217288616,137.849478 5.4322154,133.97636 C7.54376947,132.408112 9.65532355,131.474857 11.4206911,130.919482 L11.4206897,52.5523943 C11.4206897,23.5285084 34.996531,0 64.0875872,0 L117.374482,0 C146.461606,0 170.041379,23.5244519 170.041379,52.5523943 L170.041379,130.620355 C172.025448,130.957878 175.296616,131.863421 178.567785,134.292913 C183.782711,138.166031 184,145.614334 184,145.614334 L170.041379,141.68163 L170.041379,141.68163 Z" id="Combined-Shape" fill="#DA3349"></path>
                        <path d="M70.7448276,12.9894113 C45.4148711,39.2826694 26.1121891,100.005645 25.2356434,104.674898 C24.3590977,109.344152 42.6288923,163.939903 42.6288923,163.939903 L42.6288923,279.290663 L37.0382052,316.881851 C37.0382052,316.881851 34.5534553,350.656531 41.0759236,356.391854 C46.9575475,361.563671 84.661082,363.453593 92.0132953,363.401693 C99.3655086,363.349793 137.670574,362.445806 144.193042,356.710483 C150.71551,350.97516 148.23076,317.20048 148.23076,317.20048 L142.640073,279.609292 L142.640073,164.258532 C142.640073,164.258532 160.909868,109.662781 160.033322,104.993527 C159.156776,100.324274 132.457365,32.4379875 113.572414,12.9786689 C113.572414,12.9786689 70.7448276,12.9894113 70.7448276,12.9894113 Z" id="Combined-Shape" fill="#FF3F59"></path>
                        <path d="M25.3793103,100.663823 C25.3793103,100.663823 28.2344828,30.7056314 37.8363412,19.0506949 C45.6827586,11.7124573 61.5448276,12.9786689 61.5448276,12.9786689 C61.5448276,12.9786689 47.789833,28.8946011 41.2295771,46.9946866 C34.6693211,65.0947722 25.3793103,100.663823 25.3793103,100.663823 Z" id="Path-4" fill="#FF4861"></path>
                        <path d="M122.455172,100.430616 C122.455172,100.430616 125.310345,30.4724248 134.912203,18.8174883 C142.758621,11.4792508 158.62069,12.7454624 158.62069,12.7454624 C158.62069,12.7454624 144.865695,28.6613945 138.305439,46.7614801 C131.745183,64.8615656 122.455172,100.430616 122.455172,100.430616 Z" id="Path-4" fill="#FF4861" transform="translate(140.537931, 56.546366) scale(-1, 1) translate(-140.537931, -56.546366) "></path>
                        <path d="M28.5656762,103.778333 C22.4065532,116.021128 46.4271328,160.095191 46.4271328,160.095191 C46.4271328,160.095191 61.9926883,154.259674 92.1586207,154.279863 C122.324553,154.300053 137.890109,160.156405 137.890109,160.156405 C137.890109,160.156405 161.910688,116.082342 155.751565,103.839547 C149.866871,92.1422464 124.206998,93.1346786 92.3379819,93.1193401 C60.4689656,93.1040017 34.7247992,91.5355375 28.5656762,103.778333 Z" id="Combined-Shape" fill="#27465C"></path>
                        <path d="M28.5656762,103.778333 C22.4065532,116.021128 46.4271328,160.095191 46.4271328,160.095191 C46.4271328,160.095191 61.9926883,154.259674 92.1586207,154.279863 C92.1586207,154.259674 92.3379819,93.1040017 92.3379819,93.1193401 C60.4689656,93.1040017 34.7247992,91.5355375 28.5656762,103.778333 Z" id="Combined-Shape" fill="#365B77"></path>
                        <path d="M42.1931034,284.533403 C36.4162786,292.964668 42.1931034,320.936987 42.1931034,320.936987 C42.1931034,320.936987 63.6366676,318.45884 91.9301938,318.472744 C120.22372,318.486648 141.489655,320.936987 141.489655,320.936987 C141.489655,320.936987 147.26648,292.964668 141.489655,284.533403 C135.970225,276.477805 121.989321,276.363793 92.098422,276.353229 C62.2075227,276.342666 47.9699283,276.102138 42.1931034,284.533403 Z" id="Combined-Shape" fill="#27465C" transform="translate(91.841379, 298.643835) scale(1, -1) translate(-91.841379, -298.643835) "></path>
                        <path d="M42.1931034,284.53165 C36.4162786,292.962915 42.1931034,320.935233 42.1931034,320.935233 L91.9301938,318.47099 L92.098422,276.351476 C92.098422,276.351476 47.9699283,276.100384 42.1931034,284.53165 Z" id="Combined-Shape" fill="#365B77" transform="translate(65.862024, 298.642958) scale(1, -1) translate(-65.862024, -298.642958) "></path>
                        <path d="M24.1103448,212.723549 L39.9724138,212.723549 L39.9724138,258.62372 C34.969256,281.787992 24.1103448,286.163823 24.1103448,286.163823 L24.1103448,212.723549 Z" id="Path" fill="#27465C"></path>
                        <path d="M24.1103448,139.283276 L24.1103448,206.393238 L39.9724138,206.393238 L39.9724138,169.033884 C34.7163218,146.796172 24.1103448,139.283276 24.1103448,139.283276 Z" id="Path" fill="#27465C"></path>
                        <path d="M144.027586,212.723549 L159.889655,212.723549 L159.889655,258.62372 C154.886497,281.787992 144.027586,286.163823 144.027586,286.163823 L144.027586,212.723549 Z" id="Path" fill="#27465C" transform="translate(151.958621, 249.443686) scale(-1, 1) translate(-151.958621, -249.443686) "></path>
                        <path d="M144.027586,139.283276 L144.027586,206.393238 L159.889655,206.393238 L159.889655,169.033884 C154.633563,146.796172 144.027586,139.283276 144.027586,139.283276 Z" id="Path" fill="#27465C" transform="translate(151.958621, 172.838257) scale(-1, 1) translate(-151.958621, -172.838257) "></path>
                        <g id="Group-2" transform="translate(31.724138, 12.662116)">
                            <path d="M7.81448588,4.22897766 C12.0607076,0.53831133 30.4551724,0 30.4551724,0 L0.634482759,23.4249147 C0.634482759,23.4249147 3.56826419,7.91964399 7.81448588,4.22897766 Z" id="Path" fill="#9AADBB"></path>
                            <path d="M5.07586207,8.86348123 L5.07586207,19.9428328 L0,24.0580205 C0,24.0580205 3.17241379,8.86348123 5.07586207,8.86348123 Z" id="Path-3" fill="#F1543F"></path>
                        </g>
                        <g id="Group-2" transform="translate(136.775862, 25.162116) scale(-1, 1) translate(-136.775862, -25.162116) translate(121.275862, 12.662116)">
                            <path d="M7.81448588,4.22897766 C12.0607076,0.53831133 30.4551724,0 30.4551724,0 L0.634482759,23.4249147 C0.634482759,23.4249147 3.56826419,7.91964399 7.81448588,4.22897766 Z" id="Path" fill="#9AADBB"></path>
                            <path d="M5.07586207,8.86348123 L5.07586207,19.9428328 L0,24.0580205 C0,24.0580205 3.17241379,8.86348123 5.07586207,8.86348123 Z" id="Path-3" fill="#F1543F"></path>
                        </g>
                        <polygon id="Path-2" fill="#9AADBB" points="39.337931 355.172355 39.337931 361.195185 59.6413793 365.302048 59.6413793 358.646904"></polygon>
                        <polygon id="Path-2-Copy" fill="#9AADBB" transform="translate(134.510345, 360.237201) scale(-1, 1) translate(-134.510345, -360.237201) " points="124.358621 355.172355 124.358621 361.195185 144.662069 365.302048 144.662069 358.646904"></polygon>
                        <path d="M0.951724138,144.348123 C0.951724138,144.348123 11.1034483,142.448805 16.4965517,137.700512 C21.8896552,132.952218 24.7448276,127.887372 24.7448276,127.887372 C24.7448276,127.887372 7.29655172,131.369454 4.12413793,136.117747 C0.951724138,140.866041 0.951724138,144.348123 0.951724138,144.348123 Z" id="Path-5" fill="#EA5858"></path>
                        <path d="M159.889655,144.981229 C159.889655,144.981229 170.041379,143.081911 175.434483,138.333618 C180.827586,133.585324 183.682759,128.520478 183.682759,128.520478 C183.682759,128.520478 166.234483,132.00256 163.062069,136.750853 C159.889655,141.499147 159.889655,144.981229 159.889655,144.981229 Z" id="Path-5" fill="#EA5858" transform="translate(171.786207, 136.750853) scale(-1, 1) translate(-171.786207, -136.750853) "></path>
                        <path d="M72.3310345,8.86348123 C72.3310345,7.81451719 73.1844078,6.96416382 74.232096,6.96416382 L110.402387,6.96416382 C111.452314,6.96416382 112.303448,7.80720401 112.303448,8.86348123 L112.303448,8.86348123 C112.303448,9.91244527 111.450075,10.7627986 110.402387,10.7627986 L74.232096,10.7627986 C73.1821687,10.7627986 72.3310345,9.91975845 72.3310345,8.86348123 L72.3310345,8.86348123 Z" id="Rectangle-2" fill="#DA3349"></path>
                    </g>
                </g>
            </g>
        </g>
    </g>
</svg>