<?xml version="1.0" encoding="utf-8"?>
<!-- Generator: Adobe Illustrator 20.1.0, SVG Export Plug-In . SVG Version: 6.00 Build 0)  -->
<svg version="1.1" id="Слой_1" xmlns="http://www.w3.org/2000/svg" xmlns:xlink="http://www.w3.org/1999/xlink" x="0px" y="0px"
	 width="169.2924805px" height="151px" viewBox="0 0 169.2924805 151" style="enable-background:new 0 0 169.2924805 151;"
	 xml:space="preserve">
<style type="text/css">
	.st0{opacity:0.2;}
	.st1{fill:#FFFFFF;}
	.st2{opacity:0.2;fill:#FFFFFF;}
</style>
<g class="st0">
	<path class="st1" d="M97.374794,29.958334v1l-5,1.9999981V27.958334L97.374794,29.958334z"/>
</g>
<g class="st0">
	<path class="st1" d="M97.374794,31v-1l0,0c-27.6142273,0-49.9999962,22.3857689-49.9999962,50h1
		C48.3747978,52.981308,70.356102,31,97.374794,31 M97.374794,31"/>
</g>
<g class="st0">
	<path class="st1" d="M125.6655273,151H3.3344727C1.4956055,151,0,149.5039062,0,147.6650391V89.3349609
		C0,87.4960938,1.4956055,86,3.3344727,86h122.3310547c1.8378906,0,3.3339844,1.4960938,3.3339844,3.3349609v58.3300781
		C128.9995117,149.5039062,127.503418,151,125.6655273,151z M3.3344727,87C2.0473633,87,1,88.0478516,1,89.3349609v58.3300781
		C1,148.9521484,2.0473633,150,3.3344727,150h122.3310547c1.2871094,0,2.3339844-1.0478516,2.3339844-2.3349609V89.3349609
		c0-1.2871094-1.046875-2.3349609-2.3339844-2.3349609H3.3344727z"/>
</g>
<g class="st0">
	<path class="st1" d="M165.9575195,129h-58.3305664c-1.8388672,0-3.3344727-1.4960938-3.3344727-3.3349609V3.3344727
		C104.2924805,1.4956055,105.7880859,0,107.6269531,0h58.3305664c1.8388672,0,3.3349609,1.4956055,3.3349609,3.3344727v122.3305664
		C169.2924805,127.5039062,167.7963867,129,165.9575195,129z M107.6269531,1c-1.2871094,0-2.3344727,1.0473633-2.3344727,2.3344727
		v122.3305664c0,1.2871094,1.0473633,2.3349609,2.3344727,2.3349609h58.3305664
		c1.2871094,0,2.3349609-1.0478516,2.3349609-2.3349609V3.3344727C168.2924805,2.0473633,167.2446289,1,165.9575195,1H107.6269531z"
		/>
</g>
<rect x="130.7924805" y="5.6666665" class="st2" width="12" height="1"/>
<rect x="0.7924805" y="119.1666641" transform="matrix(6.123234e-17 -1 1 6.123234e-17 -112.8741837 126.4591446)" class="st2" width="12" height="1"/>
</svg>
