<?xml version="1.0" encoding="utf-8"?>
<!-- Generator: Adobe Illustrator 20.1.0, SVG Export Plug-In . SVG Version: 6.00 Build 0)  -->
<svg version="1.1" id="Слой_1" xmlns="http://www.w3.org/2000/svg" xmlns:xlink="http://www.w3.org/1999/xlink" x="0px" y="0px"
	 width="16px" height="16px" viewBox="0 0 16 16" style="enable-background:new 0 0 16 16;" xml:space="preserve">
<style type="text/css">
	.st0{fill:#1D1D1D;}
</style>
<g>
	<path class="st0" d="M8,0C3.6,0,0,3.6,0,8s3.6,8,8,8s8-3.6,8-8S12.4,0,8,0z M8,1.4c1.5,0,2.9,0.5,4,1.4c-0.8,1-1.9,1.9-3.3,2.5
		C8,4,7.3,2.8,6.4,1.6C6.9,1.5,7.4,1.4,8,1.4z M5,2.1c0.9,1.2,1.7,2.4,2.4,3.6C5.8,6.2,3.8,6.4,1.6,6.4C2,4.5,3.3,3,5,2.1z M1.4,8
		V7.8C4,7.8,6.2,7.5,8,6.9c0.2,0.3,0.3,0.6,0.4,1c-2.2,0.7-4,2.1-5.5,4.3C2,11.1,1.4,9.6,1.4,8z M3.9,13.2c1.3-2.1,3-3.4,5.1-4
		c0.6,1.6,1.1,3.3,1.4,5C8.1,15,5.7,14.6,3.9,13.2z M11.7,13.5c-0.3-1.6-0.7-3.1-1.3-4.6C11.6,8.7,13,8.8,14.5,9
		C14.2,10.9,13.2,12.5,11.7,13.5z M9.9,7.6C9.7,7.2,9.5,6.8,9.3,6.5c1.5-0.7,2.8-1.6,3.7-2.7c0.9,1.1,1.5,2.4,1.5,3.9
		C12.9,7.3,11.3,7.3,9.9,7.6z"/>
</g>
</svg>
