<?xml version="1.0" encoding="utf-8"?>
<!-- Generator: Adobe Illustrator 20.1.0, SVG Export Plug-In . SVG Version: 6.00 Build 0)  -->
<svg version="1.1" id="logo" xmlns="http://www.w3.org/2000/svg" xmlns:xlink="http://www.w3.org/1999/xlink" x="0px" y="0px"
	 width="126px" height="21px" viewBox="0 0 126 21" style="enable-background:new 0 0 126 21;" xml:space="preserve">
<style type="text/css">
	.st0{fill:#212121;}
</style>
<g>
	<path class="st0" d="M41.4,0.4h6l0,20.2h-6l-9-10.8v10.8h-6.1V0.4h6.3l8.8,10.5L41.4,0.4z"/>
	<path class="st0" d="M63.8,10.5h5.7l0,7.9c-1.1,0.8-2.5,1.4-4.2,1.9c-1.7,0.5-3.2,0.7-4.6,0.7c-2.1,0-4-0.5-5.6-1.4
		c-1.7-0.9-3-2.2-3.9-3.8c-0.9-1.6-1.4-3.4-1.4-5.4c0-2,0.5-3.8,1.5-5.4c1-1.6,2.3-2.8,4-3.7S58.9,0,61.1,0c1.6,0,3.1,0.3,4.7,0.9
		c1.6,0.6,2.9,1.3,4,2.3L66,7.7c-0.7-0.7-1.5-1.2-2.4-1.6c-0.9-0.4-1.8-0.6-2.6-0.6c-0.8,0-1.6,0.2-2.3,0.6c-0.7,0.4-1.2,1-1.6,1.8
		c-0.4,0.7-0.6,1.6-0.6,2.5c0,1,0.2,1.8,0.6,2.6c0.4,0.8,0.9,1.3,1.6,1.8c0.7,0.4,1.5,0.6,2.3,0.6c0.7,0,1.6-0.2,2.6-0.7L63.8,10.5z
		"/>
	<path class="st0" d="M72.1,0.4h6.7V15h8.4v5.6H72.1V0.4z"/>
	<path class="st0" d="M89.4,0.4h17.1v5.1H96.1v2.5h9.4V13h-9.4v2.5h10.7v5.1H89.4V0.4z"/>
</g>
<polygon class="st0" points="23.2,20.3 23.2,0.3 17.1,0.3 16.9,0.3 0,20.3 8.1,20.3 16.4,10.4 16.4,20.3 "/>
<path class="st0" d="M121.4,14.9l2.7-3.2c1.2-1.4,1.8-2.8,1.8-4.6c0-2.2-1-3.7-1.9-4.6C122.6,1,120.2,0,117.2,0
	c-2.8,0-5.5,1-7.1,2.7c-1.1,1.2-1.8,3.1-1.9,5.2h7.1c0.1-0.5,0.2-1,0.4-1.3c0.2-0.2,0.6-0.6,1.3-0.6c0.5,0,0.9,0.1,1.2,0.4
	c0.3,0.3,0.5,0.7,0.5,1.1c0,1.1-0.6,2-1.2,2.8L109,20.5h17v-5.7H121.4z"/>
</svg>
