<?xml version="1.0" encoding="utf-8"?>
<!-- Generator: Adobe Illustrator 20.1.0, SVG Export Plug-In . SVG Version: 6.00 Build 0)  -->
<svg version="1.1" id="logo" xmlns="http://www.w3.org/2000/svg" xmlns:xlink="http://www.w3.org/1999/xlink" x="0px" y="0px"
	 width="47px" height="21px" viewBox="0 0 47 21" style="enable-background:new 0 0 47 21;" xml:space="preserve">
<style type="text/css">
	.st0{fill:#1D1D1D;}
</style>
<path class="st0" d="M42.1,15.2l2.9-3.3c1.3-1.5,1.9-2.9,1.9-4.7c0-2.2-1.1-3.7-2-4.7C43.3,1,40.8,0,37.6,0c-3,0-5.9,1-7.6,2.8
	c-1.1,1.2-2,3.1-2.1,5.3h7.6c0.1-0.5,0.2-1,0.5-1.3c0.2-0.2,0.6-0.7,1.4-0.7c0.5,0,0.9,0.1,1.3,0.4c0.4,0.3,0.5,0.7,0.5,1.1
	c0,1.1-0.6,2.1-1.3,2.8l-9,10.5H47v-5.8H42.1z"/>
<polygon class="st0" points="26.7,0.4 18.2,0.4 18,0.4 0,21 7,21 8.7,21 26.7,21 26.7,15.2 13.7,15.2 "/>
</svg>
