<?xml version="1.0" encoding="UTF-8"?>
<svg width="684px" height="717px" viewBox="0 0 684 717" version="1.1" xmlns="http://www.w3.org/2000/svg" xmlns:xlink="http://www.w3.org/1999/xlink">
    <!-- Generator: Sketch 52.6 (67491) - http://www.bohemiancoding.com/sketch -->
    <title>Circles</title>
    <desc>Created with Sketch.</desc>
    <defs>
        <circle id="path-1" cx="40" cy="40" r="40"></circle>
        <circle id="path-3" cx="40" cy="40" r="40"></circle>
        <circle id="path-5" cx="40" cy="40" r="40"></circle>
    </defs>
    <g id="Floston" stroke="none" stroke-width="1" fill="none" fill-rule="evenodd">
        <g id="4peak-1280" transform="translate(0.000000, -2797.000000)">
            <g id="Part-2" transform="translate(0.000000, 2790.000000)">
                <g id="Circles" transform="translate(-51.000000, 8.000000)">
                    <circle id="Oval-6" stroke="#0A2F5A" cx="357.5" cy="357.5" r="109.5"></circle>
                    <circle id="Oval-6" stroke="#0A2F5A" cx="357.5" cy="357.5" r="357.5"></circle>
                    <circle id="Oval-6" stroke="#0A2F5A" cx="358.5" cy="358.5" r="250.5"></circle>
                    <g id="Group-19" transform="translate(221.000000, 278.000000)">
                        <mask id="mask-2" fill="white">
                            <use xlink:href="#path-1"></use>
                        </mask>
                        <use id="Oval-8" fill="#F2F5F8" xlink:href="#path-1"></use>
                        <g id="002-businesswoman" mask="url(#mask-2)">
                            <g transform="translate(4.848485, 2.424242)">
                                <ellipse id="Oval" fill="#242F48" fill-rule="nonzero" cx="48.3613811" cy="45.2432545" rx="10.1856108" ry="10.1908407"></ellipse>
                                <ellipse id="Oval" fill="#242F48" fill-rule="nonzero" cx="21.8287235" cy="45.2432545" rx="10.1856108" ry="10.1908407"></ellipse>
                                <path d="M27.7682272,58.0447307 C27.7682272,58.0447307 23.0513103,52.3776518 19.4673255,43.8465204 C16.3874649,36.5167911 12.7593876,29.0380507 12.8943596,19.1614078 C13.0227178,9.7707666 18.4527083,0 34.77085,0 C49.0568177,0 52.4409165,6.53222571 51.762137,10.9898148 C51.762137,10.9898148 53.9209545,11.1812254 55.0609904,12.6649644 C56.9939563,15.1817327 57.2254419,25.8823482 54.8819259,33.5248048 C49.5592271,50.8843545 42.4409841,58.0447307 42.4409841,58.0447307 L27.7682272,58.0447307 L27.7682272,58.0447307 Z" id="Shape" fill="#242F48" fill-rule="nonzero"></path>
                                <path d="M68.4381628,62.0285722 C65.8607116,52.7756683 52.9173604,53.8020804 47.3315764,51.1448789 C41.7457924,48.4876774 42.617354,39.5722542 41.9096695,38.0211171 L28.28068,38.0211171 C27.5729955,39.5722542 28.4457819,48.4889028 22.8587731,51.1448789 C17.2729891,53.8020804 4.32963784,52.7759134 1.75218668,62.0285722 C0.329958822,67.1322029 0.398792102,68.6916728 0.00489916587,74.3464976 C0.00489916587,74.3464976 17.7643755,78.0685893 34.6936881,78.0685893 C51.6230007,78.0685893 70.1852054,74.3464976 70.1852054,74.3464976 C69.7927822,68.6916728 69.8603907,67.1322029 68.4381628,62.0285722 Z" id="Shape" fill="#004685" fill-rule="nonzero"></path>
                                <path d="M22.8599979,51.1446338 C22.8599979,51.1446338 18.6937472,56.0678826 14.7175842,57.2428156 C14.7175842,57.2428156 23.0045233,70.8650784 35.0959096,76.9551724 L22.8599979,51.1446338 Z" id="Shape" fill="#002959" fill-rule="nonzero"></path>
                                <path d="M47.3315764,51.1446338 C47.3315764,51.1446338 51.4978271,56.0678826 55.4739901,57.2428156 C55.4739901,57.2428156 47.187051,70.8650784 35.0956647,76.9551724 L47.3315764,51.1446338 Z" id="Shape" fill="#002959" fill-rule="nonzero"></path>
                                <path d="M47.3315764,51.1446338 C45.7648231,50.3993331 44.7073382,49.1623938 43.9790772,47.7337988 L37.0330398,47.7337988 L37.0288755,47.7337988 L33.1626988,47.7337988 L33.1585345,47.7337988 L26.2124971,47.7337988 C25.4842361,49.1623938 24.4267511,50.3993331 22.8599979,51.1446338 C22.7637293,51.1899744 20.6806039,55.4343403 15.6991321,57.4881448 C15.6991321,57.4881448 18.0149678,61.1398974 22.9988892,66.6817384 C27.9828107,72.2235794 35.0941949,76.9554175 35.0941949,76.9554175 C35.0941949,76.9554175 42.2053342,72.2235794 47.1895006,66.6817384 C52.173667,61.1398974 54.4895027,57.4881448 54.4895027,57.4881448 C49.5109703,55.4343403 47.427845,51.1902194 47.3315764,51.1446338 Z" id="Shape" fill="#004685" fill-rule="nonzero"></path>
                                <path d="M47.3315764,51.1446338 C45.7648231,50.3993331 44.7073382,49.1623938 43.9790772,47.7337988 L37.0330398,47.7337988 L37.0288755,47.7337988 L36.1090571,47.7337988 C36.9090909,50.1169963 38.1591131,52.2533941 40.1141252,53.1832431 C42.9889558,54.5498319 47.8104699,54.9424565 52.1668082,56.2619892 C48.8500729,54.0939755 47.4114328,51.1818866 47.3315764,51.1446338 Z" id="Shape" fill="#002959" fill-rule="nonzero"></path>
                                <path d="M44.8986506,49.1829809 C42.0074079,45.518729 42.4892408,39.2923682 41.9096695,38.0196466 L28.28068,38.0196466 C27.6996389,39.2923682 28.1814719,45.5189741 25.2916989,49.1829809 C26.448147,62.214346 35.0959096,76.953947 35.0959096,76.953947 C35.0959096,76.953947 43.7201563,62.3439954 44.8986506,49.1829809 Z" id="Shape" fill="#E8C59E" fill-rule="nonzero"></path>
                                <path d="M29.0349066,64.0492904 C31.8230219,71.3763237 35.0956647,76.953947 35.0956647,76.953947 C35.0956647,76.953947 38.376636,71.3956854 41.1674459,64.0492904 L29.0349066,64.0492904 Z" id="Shape" fill="#EAE5DC" fill-rule="nonzero"></path>
                                <path d="M40.1141252,53.1820177 C41.20174,53.6998803 42.5690972,54.0773098 44.0834294,54.4177315 C44.4591954,52.6724879 44.7443269,50.9147449 44.8998754,49.1817555 C42.0086327,45.5175036 42.4904656,39.2911428 41.9108943,38.0184212 L34.6949129,38.0184212 C34.6936881,38.0211171 34.5271165,50.5262867 40.1141252,53.1820177 Z" id="Shape" fill="#DDB58E" fill-rule="nonzero"></path>
                                <path d="M26.447902,47.2352978 C28.7086221,49.1859219 31.3602956,51.1198803 35.0804772,51.6791622 C38.8129068,51.1184098 41.4550269,49.1445027 43.7199113,47.1857908 C41.836427,43.5161471 42.4189378,39.1396808 41.9094246,38.0196466 L28.280435,38.0196466 C27.769697,39.1409062 28.3397149,43.5641835 26.447902,47.2352978 Z" id="Shape" fill="#CCA281" fill-rule="nonzero"></path>
                                <g id="Group" stroke-width="1" fill="none" fill-rule="evenodd" transform="translate(15.187414, 8.332858)">
                                    <ellipse id="Oval" fill="#DDB58E" fill-rule="nonzero" transform="translate(35.801685, 20.618731) rotate(100.195177) translate(-35.801685, -20.618731) " cx="35.8016846" cy="20.6187313" rx="5.23862212" ry="2.85005221"></ellipse>
                                    <ellipse id="Oval" fill="#E8C59E" fill-rule="nonzero" transform="translate(3.971978, 20.621047) rotate(169.804823) translate(-3.971978, -20.621047) " cx="3.97197825" cy="20.6210466" rx="2.84858957" ry="5.24131193"></ellipse>
                                    <path d="M34.6966276,3.17089769 L20.0211762,5.43008264 C20.0211762,5.43008264 14.8209566,5.65605016 10.5775441,7.81450556 C6.68246225,9.79674551 3.71822194,13.6744657 3.67976349,14.7695013 C3.29983317,25.5914335 5.50813219,40.4163237 19.8888987,42.5816415 C42.9960596,39.1034084 34.6966276,3.17089769 34.6966276,3.17089769 Z" id="Shape" fill="#E8C59E" fill-rule="nonzero"></path>
                                    <path d="M19.8891437,42.5818866 C42.9963045,39.1036535 34.6968726,3.17089769 34.6968726,3.17089769 L31.2329173,3.17089769 C32.1816408,18.1803363 33.4936374,26.1534112 28.0469898,34.8455628 C23.7318045,41.7331604 19.8891437,42.5818866 19.8891437,42.5818866 Z" id="Shape" fill="#DDB58E" fill-rule="nonzero"></path>
                                    <path d="M34.1474311,1.57025363 C34.1474311,1.57025363 26.1370499,5.42322029 14.1808806,5.21783984 C3.64008024,5.03745797 4.05993876,22.2646623 3.96758948,22.8749216 C3.96758948,22.8749216 6.64008447,12.2225876 13.9687467,9.90409233 C20.2497223,7.91621545 24.1832626,9.64503847 28.6346447,10.0638871 C33.5884363,10.5295469 35.24068,6.76873183 35.24068,6.76873183 L34.1474311,1.57025363 Z" id="Shape" fill="#DDB58E" fill-rule="nonzero"></path>
                                    <path d="M39.3035582,10.7817384 L36.4659614,3.7907153 C36.4659614,3.7907153 35.5917052,1.75896837 33.7219385,0.0990139641 C33.7219385,0.0990139641 26.1343554,4.55243659 14.1808806,4.2000057 C1.40532573,3.82257623 2.50543343,15.436375 3.96758948,22.8763921 C3.96758948,22.8763921 4.4673044,14.7724423 10.7855137,10.4442576 C15.12397,7.47163294 20.4341759,7.50471929 24.8277479,8.37648333 C29.0133502,9.20707324 31.5824728,8.63406669 33.1533903,7.69735537 C34.2699103,9.1507039 35.6825847,11.6606099 36.1453109,15.4349045 L39.3035582,10.7817384 Z" id="Shape" fill="#242F48" fill-rule="nonzero"></path>
                                    <ellipse id="Oval" fill="#007AFF" fill-rule="nonzero" cx="36.7976349" cy="24.733149" rx="1.06973287" ry="1.07028213"></ellipse>
                                    <ellipse id="Oval" fill="#007AFF" fill-rule="nonzero" cx="3.03258368" cy="24.733149" rx="1.06973287" ry="1.07028213"></ellipse>
                                </g>
                            </g>
                        </g>
                    </g>
                    <g id="Group-19-Copy" transform="translate(552.000000, 361.000000)">
                        <mask id="mask-4" fill="white">
                            <use xlink:href="#path-3"></use>
                        </mask>
                        <use id="Oval-8" fill="#F2F5F8" xlink:href="#path-3"></use>
                        <g id="004-man" mask="url(#mask-4)" fill-rule="nonzero">
                            <g transform="translate(6.000000, 9.000000)">
                                <path d="M23,47.0787752 L23,72.5520536 C26.6273754,72.8245038 30.4165558,73 34.1668385,73 C38.094347,73 42.1100081,72.8074903 45.9599516,72.5126661 L46,47 L23,47.0787752 L23,47.0787752 Z" id="Shape" fill="#EAEAE1"></path>
                                <path d="M67.2812634,58.180572 C64.7461269,49.6317815 52.0215649,50.5800873 46.5293375,48.1250895 C41.0373375,45.6700917 41.8946597,37.433101 41.1982985,36 L27.8003374,36 C27.105113,37.433101 27.9626625,45.6712239 22.4692984,48.1250895 C16.9772983,50.5800873 4.25137231,49.632008 1.71737254,58.180572 C0.319421289,62.8958342 0.385806354,64.3379926 0,69.5611464 C0,69.5611464 17.4601815,73 34.1050998,73 C50.7500181,73 69,69.5611464 69,69.5611464 C68.6128296,64.336634 68.6792146,62.8958342 67.2812634,58.180572 Z" id="Shape" fill="#004685"></path>
                                <polygon id="Shape" fill="#042750" points="45.6850586 47.833252 38.1693081 54 37 47"></polygon>
                                <polygon id="Shape" fill="#042750" points="23.3388672 47.8012695 31.0466163 54 32 47"></polygon>
                                <polygon id="Shape" fill="#C6C5AF" points="37.5290962 47 31.4600702 47 31 47.97339 38 48"></polygon>
                                <polygon id="Shape" fill="#AAA88F" points="31.5 47 31 48.7913648 31.2883307 49"></polygon>
                                <polygon id="Shape" fill="#AAA88F" points="37.7254044 48.7218003 37 47 37.3012978 49"></polygon>
                                <path d="M37.8612176,72.9492798 L38,71.1488244 L36.5424257,53 L32.701582,53 L31,71.1499515 L31.1402205,72.9682153 C32.1277565,72.9871509 33.1152924,73 34.1013902,73 C35.3485139,73 36.6040268,72.9810644 37.8612176,72.9492798 Z" id="Shape" fill="#FFFFFF"></path>
                                <polygon id="Shape" fill="#FFFFFF" points="30 48.0051252 39 48 38.4876438 50.8683483 36.4556398 53 32.7266797 53 30.5135493 50.8683483"></polygon>
                                <path d="M32,47.2218724 L25.8375529,44 C25.8375529,44 25.0255571,45.1098226 23,47.7347362 L30.6007507,53 L31.2486223,49.5617848 L32,47.2218724 Z" id="Shape" fill="#004685"></path>
                                <path d="M37,47.2217899 L43.0859734,44 C43.0859734,44 43.9995793,45.0321524 46,47.6569988 L38.3818851,53 L37.7420534,49.5618728 L37,47.2217899 Z" id="Shape" fill="#004685"></path>
                                <ellipse id="Oval" fill="#CCA483" transform="translate(51.000000, 26.500000) rotate(100.195177) translate(-51.000000, -26.500000) " cx="51" cy="26.5" rx="5" ry="2.5"></ellipse>
                                <ellipse id="Oval" fill="#DBB491" transform="translate(18.500000, 27.000000) rotate(169.804823) translate(-18.500000, -27.000000) " cx="18.5" cy="27" rx="2.5" ry="5"></ellipse>
                                <path d="M49.5722497,11 L34.9962157,11 L20.4278987,11 C20.4278987,11 12.2595911,44.7345497 34.9962157,48 C57.7419191,44.7345497 49.5722497,11 49.5722497,11 Z" id="Shape" fill="#DBB491"></path>
                                <path d="M35,48 C57.7403249,44.7345497 49.5725873,11 49.5725873,11 L46.1634446,11 C47.0969652,25.0912279 48.3890084,32.5765457 43.0286399,40.7369501 C38.7815071,47.2031952 35,48 35,48 Z" id="Shape" fill="#CCA483"></path>
                                <path d="M41.1412612,1.26827312 C41.1412612,1.26827312 36.766559,-0.891042345 30.8848531,0.425376343 C26.4816835,1.41130173 19.3162991,4.55168239 17.7038118,11.2781931 C17.7038118,11.2781931 15.29137,22.2675581 19.3992737,27 C19.3992737,27 19.1971335,22.7072901 19.6102409,19.2901098 C19.6102409,19.2901098 22.0760865,20.4348015 27.0448514,20.3683789 C33.7066507,20.2799696 40.162779,17.4115284 42.1484313,14.2688334 C42.1484313,14.2688334 41.9202512,18.7892782 39.7483475,20.6338381 C39.7483475,20.6338381 47.3665613,19.3849993 49.6190121,14.6435313 C49.6190121,14.6435313 50.3730656,18.7943698 50.3730656,26.4836621 C50.3730656,26.4836621 51.562515,24.745795 51.8403475,21.9463224 C52.4703805,15.5956668 51.3255079,6.8255596 46.7921389,7.11832853 C46.7923595,7.11809709 44.8722484,3.12209057 41.1412612,1.26827312 Z" id="Shape" fill="#242F48"></path>
                                <path d="M39.7996043,20.2847349 C42.0424418,18.4620658 42.279586,14 42.279586,14 C40.2276041,17.1019196 33.5581496,19.933958 26.6732131,20.0226234 C21.7107414,20.0854662 19.1641768,19.0324497 19,18.9616088 C19.3267574,19.101691 29.0685982,23.2015539 39.9033549,18.0740402 C39.9033549,18.0740402 39.3150547,20.2511426 38.047473,21 C38.047473,21 48.0506285,20.8187843 50,14.3711152 C47.6727939,19.0516453 39.7996043,20.2847349 39.7996043,20.2847349 Z" id="Shape" fill="#CCA483"></path>
                            </g>
                        </g>
                    </g>
                    <g id="Group-19-Copy-2" transform="translate(339.000000, 567.000000)">
                        <mask id="mask-6" fill="white">
                            <use xlink:href="#path-5"></use>
                        </mask>
                        <use id="Oval-8" fill="#F2F5F8" xlink:href="#path-5"></use>
                        <g id="003-man-1" mask="url(#mask-6)">
                            <g transform="translate(3.000000, 7.000000)">
                                <path d="M72.1567173,59.9789967 C69.4378752,50.7370611 55.7912436,51.7622565 49.9010287,49.1082049 C44.0110576,46.4541532 44.9305046,37.5492984 44.1836825,36 L29.8148546,36 C29.0692516,37.5492984 29.9889424,46.4553772 24.0975084,49.1082049 C18.2072935,51.7622565 4.55944277,50.7373059 1.84181982,59.9789967 C0.342567759,65.0768223 0.413763336,66.6356676 0,72.2823204 C0,72.2823204 18.725412,76 36.5764838,76 C54.4275557,76 74,72.2823204 74,72.2823204 C73.5847737,66.6341989 73.6559693,65.0768223 72.1567173,59.9789967 Z" id="Shape" fill="#004685" fill-rule="nonzero"></path>
                                <g id="Group" stroke-width="1" fill="none" fill-rule="evenodd" transform="translate(25.000000, 44.000000)">
                                    <polygon id="Shape" fill="#042750" fill-rule="nonzero" points="24.3632155 3.92626023 16.3455715 10.7379137 12.2970847 4.10748684"></polygon>
                                    <polygon id="Shape" fill="#042750" fill-rule="nonzero" points="0.122027138 4.0061992 8.26921875 10.7379137 12.2970847 4.10748684"></polygon>
                                    <path d="M12.2970847,4.10748684 L2.99488076,0.161063962 C2.99488076,0.161063962 2.17271382,1.30369298 0.121784539,4.0061992 L7.8177426,9.42710453 L12.2970847,4.10748684 Z" id="Shape" fill="#004685" fill-rule="nonzero"></path>
                                    <path d="M12.2970847,4.10748684 L21.3756127,0.161063962 C21.3756127,0.161063962 22.3122862,1.22375402 24.3632155,3.92626023 L16.5527508,9.42734174 L12.2970847,4.10748684 Z" id="Shape" fill="#004685" fill-rule="nonzero"></path>
                                </g>
                                <g id="Group" stroke-width="1" fill="none" fill-rule="evenodd" transform="translate(36.000000, 57.000000)">
                                    <ellipse id="Oval" fill="#042750" fill-rule="nonzero" cx="1.73092544" cy="1.63602083" rx="1.64216667" ry="1.56005833"></ellipse>
                                    <ellipse id="Oval" fill="#042750" fill-rule="nonzero" cx="1.73092544" cy="9.44565417" rx="1.64216667" ry="1.56005833"></ellipse>
                                    <ellipse id="Oval" fill="#2F3233" fill-rule="nonzero" cx="1.73092544" cy="17.2550417" rx="1.64216667" ry="1.56005833"></ellipse>
                                </g>
                                <path d="M50.7666514,24 L22.2343179,24 C20.3301591,24 18.736656,22.4811497 18.5447377,20.4844502 L18,14.8113004 C18,12.706823 19.6194315,11 21.6161569,11 L51.3838431,11 C53.3805685,11 55,12.706823 55,14.8113004 L54.4564739,20.4829178 C54.2643133,22.4798727 52.6693562,24 50.7666514,24 Z" id="Shape" fill="#242F48" fill-rule="nonzero"></path>
                                <g id="Group" stroke-width="1" fill="none" fill-rule="evenodd" transform="translate(16.000000, 0.000000)">
                                    <ellipse id="Oval" fill="#DDB58E" fill-rule="nonzero" transform="translate(37.083641, 26.799276) rotate(100.195177) translate(-37.083641, -26.799276) " cx="37.0836414" cy="26.7992761" rx="5.15671666" ry="2.86201852"></ellipse>
                                    <ellipse id="Oval" fill="#E8C59E" fill-rule="nonzero" transform="translate(3.745753, 26.801901) rotate(169.804823) translate(-3.745753, -26.801901) " cx="3.74575283" cy="26.8019008" rx="2.80405209" ry="5.26331826"></ellipse>
                                    <path d="M20.5590887,3.09647633 C3.62874113,3.09647633 3.31430971,13.4214125 3.47152542,21.5953204 C3.6803426,32.4004232 5.68749531,46.724451 20.420681,48.8548059 C35.1960642,46.7190365 37.6924664,32.4004232 37.402389,21.5953204 C37.2169612,14.7272886 37.4894363,3.09647633 20.5590887,3.09647633 Z" id="Shape" fill="#E8C59E" fill-rule="nonzero"></path>
                                    <path d="M37.4026301,21.5955665 C37.2738675,16.8052214 37.3659786,9.69624486 31.6886106,5.83546887 C33.133452,13.2941721 33.4910454,24.3786133 32.9897394,29.440175 C32.5764454,33.616468 31.4366315,37.283553 28.9537325,41.087723 C24.4405324,48.004239 20.4209221,48.8562826 20.4209221,48.8562826 L20.4209221,48.8562826 C35.1963053,46.7190365 37.6927075,32.4004232 37.4026301,21.5955665 Z" id="Shape" fill="#DDB58E" fill-rule="nonzero"></path>
                                    <path d="M23.3728159,36.7425964 C21.8915642,36.7440731 20.4141706,38.1798968 20.4141706,38.1798968 C20.4141706,38.1798968 18.937018,36.7440731 17.4555252,36.7425964 C15.0606381,36.7398892 13.2297502,43.2124172 7.3139063,43.1403061 C7.3139063,43.1403061 10.3429611,45.4407251 13.8639179,45.4407251 C17.3848746,45.4407251 20.4139294,42.4927826 20.4139294,42.4927826 C20.4139294,42.4927826 23.4429843,45.4407251 26.963941,45.4407251 C30.4848977,45.4407251 33.5139526,43.1403061 33.5139526,43.1403061 C27.5985909,43.2124172 25.7662563,36.7413659 23.3728159,36.7425964 Z" id="Shape" fill="#242F48" fill-rule="nonzero"></path>
                                    <path d="M36.7819656,12.0825574 L36.4079755,11.7921439 C35.1922061,11.5888545 34.3506681,12.691195 34.3275197,13.9488329 L34.2069555,20.7422924 C34.185254,21.9347103 35.1555546,22.8975047 36.3238217,22.8421293 C36.5311921,22.2098648 36.8902323,21.8047626 37.4040769,21.6260845 L37.5029395,17.6712933 L36.7819656,12.0825574 Z" id="Shape" fill="#242F48" fill-rule="nonzero"></path>
                                    <path d="M3.84045185,12.3729708 L4.46786792,11.7685171 C5.68363726,11.5652276 6.46682227,12.691195 6.48852382,13.9485868 L6.60908802,20.7420463 C6.63078957,21.9344642 5.66048894,22.8972586 4.49222189,22.8418832 C4.23614354,22.182054 3.89735815,21.7739985 3.47176655,21.6356829 L3.31310407,17.6722778 L3.84045185,12.3729708 Z" id="Shape" fill="#242F48" fill-rule="nonzero"></path>
                                    <path d="M36.7928164,23.4241867 C36.1938535,23.1490323 33.9479837,22.23866 30.2968176,22.1640877 C25.9883355,22.0769637 22.1054451,23.5017124 22.1054451,23.5017124 C22.1054451,23.5017124 21.4372783,23.3619201 20.4370778,23.3619201 C19.4354304,23.3619201 18.7687104,23.5017124 18.7687104,23.5017124 C18.7687104,23.5017124 14.88582,22.0769637 10.5773379,22.1640877 C6.92617185,22.2374294 4.68054316,23.1475556 4.08133911,23.4241867 C3.98247648,23.4697177 3.91881858,23.5693935 3.91881858,23.6801443 L3.91881858,26.2877125 C3.91881858,26.4260281 4.01912799,26.5409629 4.15198973,26.5643436 C4.23204436,26.5781259 4.30655303,26.6113512 4.32680781,26.6846929 C4.37840929,26.858941 4.90551595,31.8983525 5.77430154,32.4905006 C6.64308712,33.0826487 9.17469408,33.3080883 11.0422335,33.3080883 C12.9097728,33.3080883 15.3451696,33.0120143 16.2641098,32.3521851 C16.7750609,31.9857227 17.8377137,30.286804 18.4434282,28.7195559 C18.9285785,27.4633947 19.0722911,26.4508855 19.1711537,26.1949279 C19.3920273,25.620746 20.1388019,25.5752151 20.435631,25.5752151 C20.7339068,25.5752151 21.4792346,25.6222227 21.7001083,26.1949279 C21.7989709,26.4494088 21.9412366,27.4633947 22.4278337,28.7195559 C23.0335482,30.286804 24.0976478,31.9854766 24.6071521,32.3521851 C25.5260924,33.0120143 27.9614891,33.3080883 29.8290285,33.3080883 C31.6965679,33.3080883 34.228416,33.0826487 35.0969604,32.4905006 C35.965746,31.8983525 36.4928527,26.858941 36.5444541,26.6846929 C36.5661557,26.6128279 36.6406644,26.5796026 36.7192722,26.5643436 C36.8533396,26.5407167 36.9524434,26.4260281 36.9524434,26.2877125 L36.9524434,23.6801443 C36.9555781,23.5693935 36.891679,23.4697177 36.7928164,23.4241867 Z M17.5449839,28.164817 C17.2156025,29.1497616 16.3441645,30.9161152 15.6827493,31.5247529 C15.0864388,32.0738312 13.3773208,32.4626898 11.3120561,32.4626898 C9.24679147,32.4626898 7.14849222,32.1749836 6.53747289,31.7834177 C5.92476565,31.3933285 5.49652163,29.3473904 5.42080732,28.6129889 C5.34485187,27.8783414 5.02246322,25.6291139 5.55897388,24.660905 C6.09548455,23.6926961 9.58413008,23.176597 10.6236346,23.176597 C14.3886132,23.176597 17.3865625,23.9843401 17.9218675,24.6719801 C18.4586193,25.3620812 17.8377137,27.2891466 17.5449839,28.164817 Z M35.4538304,28.6144656 C35.377875,29.3491132 34.9484253,31.3948052 34.3371649,31.7848944 C33.7244576,32.1749836 31.6278463,32.4641665 29.5625816,32.4641665 C27.4970759,32.4641665 25.788199,32.075554 25.1918885,31.5262295 C24.5304733,30.9175919 23.6590353,29.1509921 23.3296539,28.1662937 C23.036924,27.2906233 22.4174652,25.3623273 22.9527702,24.6749334 C23.4880753,23.9875396 26.4874713,23.1795503 30.2510032,23.1795503 C31.2919544,23.1795503 34.7803589,23.6954034 35.3156639,24.6638583 C35.8509689,25.6318211 35.5297859,27.8798181 35.4538304,28.6144656 Z" id="Shape" fill="#004685" fill-rule="nonzero"></path>
                                    <path d="M38.5913086,12.1743164 C36.4552409,4.66097005 30.7890625,0.904296875 21.5927734,0.904296875 C7.79833984,0.904296875 4.80517578,5.76660156 3.50292969,9.91992188 C2.63476563,12.6888021 2.36767578,14.875651 2.70166016,16.4804688 L4.80517578,19.2861328 C7.54150391,19.2770182 10.6891276,18.1083984 14.2480469,15.7802734 C17.8069661,13.4521484 24.0914714,12.2501628 33.1015625,12.1743164 C31.9261068,15.2521159 32.3699544,17.0625 34.4331055,17.6054688 C36.4962565,18.1484375 37.8823242,16.3380534 38.5913086,12.1743164 Z" id="Path-7" fill="#242F48"></path>
                                </g>
                            </g>
                        </g>
                    </g>
                    <g id="Group-28" transform="translate(508.000000, 157.000000)">
                        <circle id="Oval-5" fill="#002047" cx="25" cy="25" r="25"></circle>
                        <g id="001-connection" transform="translate(8.000000, 9.000000)" fill="#0A2F5A" fill-rule="nonzero">
                            <path d="M25.3327813,22.7906328 C25.6358047,22.32125 25.8125,21.7631094 25.8125,21.1640625 L25.8125,20.0703125 C25.8125,18.4118047 24.4631953,17.0625 22.8046875,17.0625 C21.5309609,17.0625 20.4403828,17.85875 20.0025547,18.9792969 L14.8203125,15.9873437 L14.8203125,10.9375 L19.1953125,10.9375 L19.1953125,9.5703125 C19.1953125,7.81309375 18.0843359,6.31099219 16.5280938,5.72813281 C16.8311172,5.25875 17.0078125,4.70060937 17.0078125,4.1015625 L17.0078125,3.0078125 C17.0078125,1.34930469 15.6585078,0 14,0 C12.3414922,0 10.9921875,1.34930469 10.9921875,3.0078125 L10.9921875,4.1015625 C10.9921875,4.70060938 11.1688828,5.25875 11.4719609,5.72813281 C9.91571875,6.31099219 8.8046875,7.81309375 8.8046875,9.5703125 L8.8046875,10.9375 L13.1796875,10.9375 L13.1796875,15.9873438 L7.99744531,18.9792969 C7.55961719,17.85875 6.46903906,17.0625 5.1953125,17.0625 C3.53680469,17.0625 2.1875,18.4118047 2.1875,20.0703125 L2.1875,21.1640625 C2.1875,21.7631094 2.36419531,22.32125 2.66727344,22.7906328 C1.11103125,23.3734922 0,24.8755938 0,26.6328125 L0,28 L10.390625,28 L10.390625,26.6328125 C10.390625,24.8755938 9.27959375,23.3734922 7.72335156,22.7906328 C8.02642969,22.32125 8.203125,21.7631094 8.203125,21.1640625 L8.203125,20.755 L14,17.4081797 L19.796875,20.755 L19.796875,21.1640625 C19.796875,21.7631094 19.9735703,22.32125 20.2765937,22.7906328 C18.7203516,23.3734922 17.609375,24.8755938 17.609375,26.6328125 L17.609375,28 L28,28 L28,26.6328125 C28,24.8755938 26.8890234,23.3734922 25.3327813,22.7906328 Z M3.828125,20.0703125 C3.828125,19.3164453 4.44144531,18.703125 5.1953125,18.703125 C5.94917969,18.703125 6.5625,19.3164453 6.5625,20.0703125 L6.5625,21.1640625 C6.5625,21.9179297 5.94917969,22.53125 5.1953125,22.53125 C4.44144531,22.53125 3.828125,21.9179297 3.828125,21.1640625 L3.828125,20.0703125 Z M8.73490625,26.359375 L1.65571875,26.359375 C1.79221875,25.1306562 2.83702344,24.171875 4.1015625,24.171875 L6.2890625,24.171875 C7.55360156,24.171875 8.59846094,25.1306562 8.73490625,26.359375 Z M12.6328125,3.0078125 C12.6328125,2.25394531 13.2461328,1.640625 14,1.640625 C14.7538672,1.640625 15.3671875,2.25394531 15.3671875,3.0078125 L15.3671875,4.1015625 C15.3671875,4.85542969 14.7538672,5.46875 14,5.46875 C13.2461328,5.46875 12.6328125,4.85542969 12.6328125,4.1015625 L12.6328125,3.0078125 Z M10.4604063,9.296875 C10.5968516,8.06815625 11.6417109,7.109375 12.90625,7.109375 L15.09375,7.109375 C16.3582891,7.109375 17.4031484,8.06815625 17.5395938,9.296875 L10.4604063,9.296875 Z M21.4375,20.0703125 C21.4375,19.3164453 22.0508203,18.703125 22.8046875,18.703125 C23.5585547,18.703125 24.171875,19.3164453 24.171875,20.0703125 L24.171875,21.1640625 C24.171875,21.9179297 23.5585547,22.53125 22.8046875,22.53125 C22.0508203,22.53125 21.4375,21.9179297 21.4375,21.1640625 L21.4375,20.0703125 Z M19.2650937,26.359375 C19.4015391,25.1306562 20.4463984,24.171875 21.7109375,24.171875 L23.8984375,24.171875 C25.1629766,24.171875 26.2078359,25.1306562 26.3442812,26.359375 L19.2650937,26.359375 Z" id="Shape"></path>
                        </g>
                    </g>
                    <g id="Group-29" transform="translate(142.000000, 168.000000)">
                        <circle id="Oval-5" fill="#002047" cx="25" cy="25" r="25"></circle>
                        <g id="007-alarm" transform="translate(11.000000, 12.000000)" fill="#0A2F5A" fill-rule="nonzero">
                            <path d="M23.6491857,19.6160617 L22.9517241,19.6160617 L22.9517241,15.4675554 C22.9517241,10.8789034 19.0907381,7.1458625 14.3450058,7.1458625 C9.5993626,7.1458625 5.73846562,10.8789034 5.73846562,15.4675554 L5.73846562,19.6160617 L5.04091497,19.6160617 C3.76752195,19.6160617 2.73157593,20.6284858 2.73157593,21.8729218 L2.73157593,23.3482116 C2.73157593,24.5927368 3.76752195,25.6051608 5.04091497,25.6051608 L23.6491857,25.6051608 C24.9224896,25.6051608 25.9584356,24.5927368 25.9584356,23.3482116 L25.9584356,21.8729218 C25.9584356,20.6285749 24.9224896,19.6160617 23.6491857,19.6160617 Z M7.52052088,15.4676445 C7.52052088,11.8615686 10.5819387,8.92791776 14.3450949,8.92791776 C18.108251,8.92791776 21.1698471,11.8616577 21.1698471,15.4676445 L21.1698471,19.6161508 L7.52052088,19.6161508 L7.52052088,15.4676445 Z M24.1764695,23.3482116 C24.1764695,23.6100715 23.9400026,23.8231947 23.6491857,23.8231947 L5.04091497,23.8231947 C4.75009809,23.8231947 4.51354209,23.6100715 4.51354209,23.3482116 L4.51354209,21.8729218 C4.51354209,21.6110619 4.75009809,21.3980278 5.04091497,21.3980278 L23.6491857,21.3980278 C23.9400026,21.3980278 24.1764695,21.6110619 24.1764695,21.8729218 L24.1764695,23.3482116 Z" id="Shape"></path>
                            <path d="M14.3450058,6.31778282 C14.8370066,6.31778282 15.2359889,5.9188006 15.2359889,5.42679974 L15.2359889,0.946491326 C15.2359889,0.454490469 14.8370066,0.0555082459 14.3450058,0.0555082459 C13.8530049,0.0555082459 13.4540227,0.454490469 13.4540227,0.946491326 L13.4540227,5.42679974 C13.4540227,5.9188897 13.8530049,6.31778282 14.3450058,6.31778282 Z" id="Shape"></path>
                            <path d="M9.66182052,6.64388263 C9.8156933,6.9616072 10.1334179,7.14675348 10.464329,7.14675348 C10.5945907,7.14675348 10.7269017,7.11806383 10.8520848,7.05747698 C11.2949925,6.84310645 11.4801388,6.31020947 11.2656792,5.86730178 L9.2996359,1.80682459 C9.08526537,1.3639169 8.55219019,1.17850332 8.1094607,1.39323024 C7.66655301,1.60760077 7.48140673,2.14049775 7.69586635,2.58340544 L9.66182052,6.64388263 Z" id="Shape"></path>
                            <path d="M3.1859773,6.39948597 L6.74955322,9.27941058 C6.91447419,9.41270165 7.11227244,9.47747612 7.3090015,9.47747612 C7.56881217,9.47747612 7.82648447,9.36432127 8.00245363,9.1464759 C8.31180296,8.76379867 8.25228529,8.20274663 7.86951895,7.8934864 L4.30594303,5.01356179 C3.92335489,4.70421247 3.36230285,4.76373013 3.05295352,5.14649647 C2.7436933,5.5291737 2.80321097,6.09022574 3.1859773,6.39948597 Z" id="Shape"></path>
                            <path d="M5.47446734,12.8739036 C5.87104391,12.8739036 6.23287214,12.6072324 6.33658257,12.205399 C6.45953823,11.7289013 6.17299807,11.2429591 5.69650032,11.1200034 L1.20291626,9.96029985 C0.726774898,9.83716599 0.240476333,10.1238843 0.117520668,10.6003821 C-0.00543499679,11.0768798 0.281105162,11.562822 0.757602913,11.6857777 L5.25118698,12.8454813 C5.32585136,12.8647265 5.40078304,12.8739036 5.47446734,12.8739036 Z" id="Shape"></path>
                            <path d="M17.838194,7.05747698 C17.963199,7.11806383 18.0955991,7.14666438 18.2258608,7.14666438 C18.5566828,7.14666438 18.8744965,6.9616072 19.0284583,6.64370443 L20.9944125,2.58322724 C21.208783,2.14031955 21.0236368,1.60751167 20.58064,1.39305205 C20.1379996,1.17859242 19.6049244,1.3637387 19.3904648,1.80682459 L17.4245106,5.86730178 C17.210051,6.31020947 17.3952864,6.84301735 17.838194,7.05747698 Z" id="Shape"></path>
                            <path d="M20.687647,9.1464759 C20.8637053,9.36432127 21.1211994,9.47747612 21.3810992,9.47747612 C21.5777391,9.47747612 21.7758047,9.41261255 21.9405474,9.27941058 L25.5042125,6.39948597 C25.8869788,6.09022574 25.9464965,5.5291737 25.6371471,5.14649647 C25.3278869,4.76373013 24.7666567,4.70421247 24.3841576,5.01356179 L20.8204926,7.8934864 C20.4378154,8.20274663 20.3782977,8.76379867 20.687647,9.1464759 Z" id="Shape"></path>
                            <path d="M28.5724909,10.6003821 C28.4494461,10.1238843 27.963504,9.83707689 27.4870953,9.96029985 L22.9936003,11.1200034 C22.5171026,11.2429591 22.2306515,11.7289013 22.3535181,12.205399 C22.4572285,12.6072324 22.8190568,12.8739036 23.2156333,12.8739036 C23.2893176,12.8739036 23.3642493,12.8647265 23.4389137,12.8454813 L27.9324087,11.6857777 C28.4089064,11.562822 28.6954466,11.0768798 28.5724909,10.6003821 Z" id="Shape"></path>
                        </g>
                    </g>
                    <g id="Group-26" transform="translate(386.000000, 243.000000)">
                        <circle id="Oval-5" fill="#002047" cx="25" cy="25" r="25"></circle>
                        <g id="012-shield-1" transform="translate(9.000000, 8.000000)" fill="#0A2F5A" fill-rule="nonzero">
                            <path d="M15.9923243,34.3627027 C15.8810811,34.3627027 15.7697297,34.3455135 15.6624865,34.3111351 C12.0577297,33.1564324 8.98875676,30.9416216 6.54064865,27.7283243 C4.6132973,25.1984865 3.07005405,22.0498378 1.95405405,18.3698378 C0.0714594595,12.1628108 0.0498378378,6.6332973 0.0498378378,6.40097297 C0.0498378378,5.84421622 0.472756757,5.37837838 1.02702703,5.32486486 C1.11048649,5.31675676 9.50681081,4.45481081 15.3570811,0.20627027 C15.7358919,-0.068972973 16.2488649,-0.0686486486 16.6276757,0.206378378 C22.4763243,4.45481081 30.8737297,5.31675676 30.9578378,5.32497297 C31.5116757,5.37902703 31.9344865,5.84464865 31.9344865,6.40097297 C31.9344865,6.6332973 31.9128649,12.1628108 30.0303784,18.3699459 C28.9142703,22.0499459 27.3711351,25.1985946 25.4437838,27.7284324 C22.9957838,30.9417297 19.9268108,33.1565405 16.3220541,34.3112432 C16.2148108,34.3455135 16.1035676,34.3627027 15.9923243,34.3627027 Z M2.24302703,7.34940541 C2.33286486,9.16389189 2.68216216,13.3427027 4.03805405,17.7916757 C6.35210811,25.3837838 10.3732973,30.2100541 15.9922162,32.1425946 C21.6242162,30.2057297 25.6500541,25.363027 27.9611892,17.7423784 C29.3078919,13.3019459 29.6534054,9.15491892 29.7419459,7.34951351 C27.3198919,6.99610811 21.0459459,5.80010811 15.9921081,2.39978378 C10.9378378,5.79978378 4.66518919,6.996 2.24302703,7.34940541 Z" id="Shape"></path>
                            <path d="M15.4142703,22.4459459 C15.1578378,22.4459459 14.9083243,22.3547027 14.7116757,22.1864865 L10.8021622,18.8431351 C10.3484324,18.4551351 10.2951351,17.7727568 10.6831351,17.3189189 C11.071027,16.8650811 11.7535135,16.8116757 12.2073514,17.1998919 L15.2477838,19.8 L21.2740541,11.8953514 C21.636,11.4205405 22.3142703,11.3288649 22.7891892,11.691027 C23.2641081,12.052973 23.3554595,12.7313514 22.9935135,13.2061622 L16.2740541,22.0202162 C16.0938378,22.2566486 15.8243243,22.4084324 15.5286486,22.4398919 C15.4904865,22.4438919 15.4523243,22.4459459 15.4142703,22.4459459 Z" id="Shape"></path>
                        </g>
                    </g>
                    <g id="Group-25" transform="translate(396.000000, 419.000000)">
                        <circle id="Oval-5" fill="#002047" cx="25" cy="25" r="25"></circle>
                        <g id="014-place" transform="translate(13.000000, 9.000000)" fill="#0A2F5A" fill-rule="nonzero">
                            <path d="M12.25,8.1875 C10.0099375,8.1875 8.1875,10.0099375 8.1875,12.25 C8.1875,14.4900625 10.0099375,16.3125 12.25,16.3125 C14.4900625,16.3125 16.3125,14.4900625 16.3125,12.25 C16.3125,10.0099375 14.4900625,8.1875 12.25,8.1875 Z M12.25,14.4375 C11.0438125,14.4375 10.0625,13.4561875 10.0625,12.25 C10.0625,11.0438125 11.0438125,10.0625 12.25,10.0625 C13.4561875,10.0625 14.4375,11.0438125 14.4375,12.25 C14.4375,13.4561875 13.4561875,14.4375 12.25,14.4375 Z" id="Shape"></path>
                            <path d="M12.25,0 C5.4953125,0 0,5.4953125 0,12.25 C0,14.412125 0.57125,16.5378125 1.651875,18.39725 C1.903875,18.83075 2.1855,19.253125 2.4890625,19.652875 L11.7178125,32 L12.78225,32 L22.010875,19.6528125 C22.3145,19.253125 22.596125,18.8306875 22.8480625,18.3971875 C23.92875,16.5378125 24.5,14.412125 24.5,12.25 C24.5,5.4953125 19.0046875,0 12.25,0 Z M21.227,17.4550625 C21.013,17.82325 20.7736875,18.1820625 20.515625,18.5215625 L12.25,29.5801875 L3.988875,18.5275625 L3.984375,18.5215625 C3.7263125,18.182125 3.487,17.8233125 3.273,17.4550625 C2.358375,15.8814375 1.875,14.0815625 1.875,12.25 C1.875,6.5291875 6.52925,1.875 12.25,1.875 C17.97075,1.875 22.625,6.5291875 22.625,12.25 C22.625,14.0815625 22.141625,15.8814375 21.227,17.4550625 Z" id="Shape"></path>
                        </g>
                    </g>
                    <g id="Group-31" transform="translate(138.000000, 488.000000)">
                        <circle id="Oval-5" fill="#002047" cx="25" cy="25" r="25"></circle>
                        <g id="017-search" transform="translate(9.000000, 9.000000)" fill="#0A2F5A" fill-rule="nonzero">
                            <path d="M20.4420625,0 C14.0690625,0 8.8841875,5.184875 8.8841875,11.5579375 C8.8841875,13.75025 9.49775,15.8019375 10.5621875,17.5503125 L0.803875,27.308625 C-0.2679375,28.380375 -0.2679375,30.124375 0.803875,31.196125 C1.33975,31.7320625 2.0436875,32 2.747625,32 C3.4515625,32 4.1555,31.7320625 4.691375,31.196125 L14.4496875,21.4378125 C16.198125,22.5021875 18.24975,23.1158125 20.4420625,23.1158125 C26.815125,23.1158125 32,17.9309375 32,11.5579375 C32,5.1849375 26.815125,0 20.4420625,0 Z M3.366125,29.870875 C3.025125,30.211875 2.47025,30.2119375 2.1291875,29.870875 C1.7881875,29.529875 1.7881875,28.9749375 2.1291875,28.6339375 L11.6783125,19.08475 C12.0590625,19.5274375 12.472625,19.941 12.91525,20.3216875 L3.366125,29.870875 Z M20.4420625,21.2415625 C15.1025,21.2415625 10.7584375,16.8975 10.7584375,11.5579375 C10.7584375,6.218375 15.1025,1.87425 20.4420625,1.87425 C25.781625,1.87425 30.12575,6.2183125 30.12575,11.557875 C30.12575,16.8974375 25.7816875,21.2415625 20.4420625,21.2415625 Z" id="Shape"></path>
                            <path d="M12.6326875,11.5579375 L14.5069375,11.5579375 C14.5069375,8.28525 17.1694375,5.6228125 20.4420625,5.6228125 L20.4420625,3.7485 C16.1359375,3.7485 12.6326875,7.2518125 12.6326875,11.5579375 Z" id="Shape"></path>
                        </g>
                    </g>
                    <g id="Group-27" transform="translate(685.000000, 277.000000)">
                        <circle id="Oval-5" fill="#002047" cx="25" cy="25" r="25"></circle>
                        <g id="018-chat" transform="translate(9.000000, 10.000000)" fill="#0A2F5A" fill-rule="nonzero">
                            <path d="M29.1875,5.6495625 L23.875,5.6495625 L23.875,2.8370625 C23.875,1.28625 22.6133125,0.0245625 21.0625,0.0245625 L2.8125,0.0245625 C1.2616875,0.0245625 0,1.28625 0,2.8370625 L0,20.725375 L4.4508125,16.2745625 L6.875,16.2745625 L6.875,20.3370625 C6.875,21.887875 8.1366875,23.1495625 9.6875,23.1495625 L26.2991875,23.1495625 L32,28.8504375 L32,8.4620625 C32,6.91125 30.7383125,5.6495625 29.1875,5.6495625 Z M6.875,8.4620625 L6.875,14.3995625 L3.6741875,14.3995625 L1.875,16.19875 L1.875,2.8370625 C1.875,2.320125 2.2955625,1.8995625 2.8125,1.8995625 L21.0625,1.8995625 C21.5794375,1.8995625 22,2.320125 22,2.8370625 L22,5.6495625 L9.6875,5.6495625 C8.1366875,5.6495625 6.875,6.91125 6.875,8.4620625 Z M30.125,24.32375 L27.0758125,21.2745625 L9.6875,21.2745625 C9.1705625,21.2745625 8.75,20.854 8.75,20.3370625 L8.75,8.4620625 C8.75,7.945125 9.1705625,7.5245625 9.6875,7.5245625 L29.1875,7.5245625 C29.7044375,7.5245625 30.125,7.945125 30.125,8.4620625 L30.125,24.32375 Z" id="Shape"></path>
                            <rect id="Rectangle-path" x="10.625" y="11.274375" width="17.625" height="1.875"></rect>
                            <rect id="Rectangle-path" x="10.625" y="15.024375" width="13.875" height="1.875"></rect>
                        </g>
                    </g>
                    <g id="Group-30" transform="translate(257.000000, 572.000000)">
                        <circle id="Oval-5" fill="#002047" cx="25" cy="25" r="25"></circle>
                        <g id="024-settings" transform="translate(9.000000, 9.000000)" fill="#0A2F5A" fill-rule="nonzero">
                            <path d="M32,19.026625 L32,12.973375 L29.014125,12.641625 C28.700875,11.42225 28.2190625,10.2605 27.5760625,9.1736875 L29.4538125,6.8264375 L25.173625,2.5461875 L22.8263125,4.424 C21.7395625,3.7809375 20.5778125,3.299125 19.358375,2.985875 L19.026625,0 L12.973375,0 L12.641625,2.985875 C11.42225,3.2991875 10.2605,3.7809375 9.1736875,4.424 L6.826375,2.5461875 L2.5461875,6.8264375 L4.4239375,9.1736875 C3.7809375,10.2604375 3.299125,11.42225 2.985875,12.641625 L0,12.973375 L0,19.026625 L2.985875,19.358375 C3.299125,20.57775 3.7809375,21.7395 4.4239375,22.8263125 L2.5461875,25.1735625 L6.826375,29.4538125 L9.1736875,27.576 C10.2604375,28.219125 11.4221875,28.700875 12.641625,29.014125 L12.973375,32 L19.026625,32 L19.358375,29.014125 C20.57775,28.7008125 21.7395,28.2190625 22.8263125,27.576 L25.173625,29.4538125 L29.4538125,25.1735625 L27.5760625,22.8263125 C28.2190625,21.7395625 28.700875,20.57775 29.014125,19.358375 L32,19.026625 Z M27.466875,17.6436875 L27.3309375,18.3135 C27.0360625,19.7665625 26.4694375,21.1330625 25.6469375,22.375 L25.269625,22.9446875 L26.941375,25.034375 L25.0344375,26.9413125 L22.9446875,25.2695625 L22.375,25.646875 C21.1330625,26.469375 19.766625,27.036 18.3135,27.3309375 L17.6436875,27.466875 L17.348375,30.125 L14.651625,30.125 L14.3563125,27.466875 L13.6865,27.3309375 C12.233375,27.036 10.8669375,26.469375 9.625,25.646875 L9.0553125,25.269625 L6.9655625,26.941375 L5.058625,25.0344375 L6.730375,22.94475 L6.3530625,22.3750625 C5.5305625,21.133125 4.964,19.766625 4.6690625,18.3135625 L4.533125,17.64375 L1.875,17.348375 L1.875,14.651625 L4.533125,14.35625 L4.6690625,13.6865 C4.9639375,12.2334375 5.5305625,10.8669375 6.3530625,9.625 L6.730375,9.0553125 L5.058625,6.965625 L6.9655625,5.0586875 L9.0553125,6.7304375 L9.625,6.353125 C10.8669375,5.530625 12.233375,4.964 13.6865,4.6690625 L14.3563125,4.533125 L14.651625,1.875 L17.348375,1.875 L17.6436875,4.533125 L18.3135,4.6690625 C19.766625,4.964 21.1330625,5.530625 22.375,6.353125 L22.9446875,6.7303125 L25.0344375,5.0585625 L26.941375,6.9655 L25.269625,9.0551875 L25.6469375,9.624875 C26.4694375,10.8668125 27.036,12.2333125 27.3309375,13.686375 L27.466875,14.3561875 L30.125,14.6515625 L30.125,17.3483125 L27.466875,17.6436875 Z" id="Shape"></path>
                            <path d="M16,8.1875 C11.6921875,8.1875 8.1875,11.6921875 8.1875,16 C8.1875,20.3078125 11.6921875,23.8125 16,23.8125 C20.3078125,23.8125 23.8125,20.3078125 23.8125,16 C23.8125,11.6921875 20.3078125,8.1875 16,8.1875 Z M16,21.9375 C12.7260625,21.9375 10.0625,19.2739375 10.0625,16 C10.0625,12.7260625 12.7260625,10.0625 16,10.0625 C19.2739375,10.0625 21.9375,12.7260625 21.9375,16 C21.9375,19.2739375 19.2739375,21.9375 16,21.9375 Z" id="Shape"></path>
                        </g>
                    </g>
                    <g id="Group-24" transform="translate(509.000000, 512.000000)">
                        <circle id="Oval-5" fill="#002047" cx="25" cy="25" r="25"></circle>
                        <g id="028-compass-1" transform="translate(9.000000, 8.000000)" fill="#0A2F5A" fill-rule="nonzero">
                            <path d="M26.3050227,8.60413636 C24.6444545,6.94363636 22.6713409,5.70954545 20.5187045,4.95518182 C20.4345,2.20868182 18.1756364,0 15.4090909,0 C12.6426136,0 10.3836818,2.20868182 10.2994773,4.95518182 C8.14684091,5.70954545 6.17372727,6.94363636 4.51322727,8.60413636 C1.60281818,11.5144773 0,15.3840682 0,19.5 C0,23.6159318 1.60281818,27.4855227 4.51322727,30.3958636 C7.42363636,33.3062045 11.2931591,34.9090909 15.4090909,34.9090909 C19.5250227,34.9090909 23.3945455,33.3062727 26.3050227,30.3958636 C29.2153636,27.4855227 30.8181818,23.6159318 30.8181818,19.5 C30.8181818,15.3840682 29.2153636,11.5144773 26.3050227,8.60413636 Z M15.4090909,2.04545455 C16.7425227,2.04545455 17.8799318,2.90038636 18.3020455,4.09090909 L12.5161364,4.09090909 C12.93825,2.90038636 14.0757273,2.04545455 15.4090909,2.04545455 Z M15.4090909,32.8636364 C8.04034091,32.8636364 2.04545455,26.86875 2.04545455,19.5 C2.04545455,12.13125 8.04034091,6.13636364 15.4090909,6.13636364 C22.7778409,6.13636364 28.7727273,12.13125 28.7727273,19.5 C28.7727273,26.86875 22.7778409,32.8636364 15.4090909,32.8636364 Z" id="Shape"></path>
                            <rect id="Rectangle-path" x="14.3863636" y="8.18181818" width="2.04545455" height="3.40909091"></rect>
                            <polygon id="Rectangle-path" points="4.09090909 18.4772727 7.5 18.4772727 7.5 20.5227273 4.09090909 20.5227273"></polygon>
                            <polygon id="Rectangle-path" points="14.3863636 27.4090909 16.4318182 27.4090909 16.4318182 30.8181818 14.3863636 30.8181818"></polygon>
                            <polygon id="Rectangle-path" points="23.3181818 18.4772727 26.7272727 18.4772727 26.7272727 20.5227273 23.3181818 20.5227273"></polygon>
                            <path d="M21.7248409,14.6305909 L20.2785,13.18425 L16.7310682,16.7316136 C16.3305,16.5396136 15.8822045,16.4318182 15.4090909,16.4318182 C13.7172955,16.4318182 12.3409091,17.8082045 12.3409091,19.5 C12.3409091,19.9731136 12.4487045,20.4214091 12.6407727,20.8219773 L9.09334091,24.3694091 L10.5396818,25.81575 L14.0871136,22.2683182 C14.4876818,22.4603864 14.9359773,22.5681818 15.4090909,22.5681818 C17.1008864,22.5681818 18.4772727,21.1917955 18.4772727,19.5 C18.4772727,19.0268864 18.3694773,18.5785227 18.1774091,18.1779545 L21.7248409,14.6305909 Z M15.4090909,20.5227273 C14.8451591,20.5227273 14.3863636,20.0639318 14.3863636,19.5 C14.3863636,18.9360682 14.8451591,18.4772727 15.4090909,18.4772727 C15.9730227,18.4772727 16.4318182,18.9360682 16.4318182,19.5 C16.4318182,20.0639318 15.9730227,20.5227273 15.4090909,20.5227273 Z" id="Shape"></path>
                        </g>
                    </g>
                </g>
            </g>
        </g>
    </g>
</svg>