<?xml version="1.0" encoding="UTF-8"?>
<svg width="90px" height="90px" viewBox="0 0 90 90" version="1.1" xmlns="http://www.w3.org/2000/svg" xmlns:xlink="http://www.w3.org/1999/xlink">
    <!-- Generator: Sketch 52.6 (67491) - http://www.bohemiancoding.com/sketch -->
    <title>003-internet-1</title>
    <desc>Created with Sketch.</desc>
    <g id="4peak" stroke="none" stroke-width="1" fill="none" fill-rule="evenodd" fill-opacity="0.2">
        <g id="4peak-1280" transform="translate(-556.000000, -2841.000000)" fill="#454A59" fill-rule="nonzero">
            <g id="Group-2" transform="translate(280.000000, 2836.000000)">
                <g id="003-internet-1" transform="translate(276.000000, 5.000000)">
                    <path d="M76.8199219,13.1800781 C68.3205469,4.68087891 57.0199219,0 45,0 C32.9800781,0 21.6794531,4.68087891 13.1800781,13.1800781 C4.68087891,21.6796289 0,32.9800781 0,45 C0,57.0199219 4.68087891,68.3203711 13.1800781,76.8199219 C21.6794531,85.3191211 32.9800781,90 45,90 C57.0199219,90 68.3205469,85.3191211 76.8199219,76.8199219 C85.3191211,68.3203711 90,57.0199219 90,45 C90,32.9800781 85.3191211,21.6796289 76.8199219,13.1800781 Z M8.54332031,57.9744141 L7.73560547,65.1863672 C5.51056641,61.0922461 3.98337891,56.6548242 3.21486328,52.0217578 L8.09402344,56.728125 C8.42660156,57.0491016 8.59464844,57.5149219 8.54332031,57.9744141 Z M82.2033984,40.8846094 L84.1649414,44.5113281 C84.6755859,45.4558008 85.5200391,46.1561133 86.5569727,46.4878125 L87.326543,46.7244141 C86.9015039,57.3932812 82.5486328,67.3620117 74.9554102,74.9554102 C66.9540234,82.9567969 56.3157422,87.3632812 45,87.3632812 C33.6842578,87.3632812 23.0459766,82.9567969 15.0445898,74.9554102 C13.149668,73.0604883 11.4591797,71.0161523 9.97822266,68.851582 L11.1635156,58.2679687 C11.3055469,57.0007617 10.8421875,55.715625 9.92443359,54.8305664 L2.73585937,47.8963477 C2.67152344,46.9364062 2.63671875,45.9710156 2.63671875,45 C2.63671875,33.6842578 7.04320312,23.0459766 15.0445898,15.0445898 C20.041875,10.0473047 26.067832,6.45240234 32.6448633,4.45728516 L31.7895117,6.72398437 C31.5323438,7.40513672 31.8761719,8.16591797 32.5573242,8.42291016 C32.7106055,8.48074219 32.8681055,8.50816406 33.0226172,8.50816406 C33.5552344,8.50816406 34.0570898,8.18279297 34.25625,7.65492187 L35.7713086,3.64007812 C37.9661133,3.15492187 40.2117188,2.84449219 42.49125,2.71212891 L40.6314844,9.95941406 L40.1255859,10.0981055 L32.9649609,10.0981055 C31.6037109,10.0981055 30.4414453,11.1157031 30.2612695,12.4651758 L29.6296875,17.2026562 L26.3990039,17.3717578 C24.9830859,17.4459375 23.8728516,18.5702344 23.8164258,19.9868555 L23.6666602,23.7448828 C23.6355469,24.5255273 23.9414062,25.2829687 24.5056641,25.8233203 C25.0699219,26.3634961 25.8380859,26.6364844 26.6185547,26.5712695 L26.8488281,26.5521094 L24.1748438,29.023418 C23.6401172,29.5177148 23.6072461,30.3517969 24.101543,30.8865234 C24.3615234,31.1675977 24.7151953,31.3099805 25.0700977,31.3099805 C25.3900195,31.3099805 25.7109961,31.1941406 25.9646484,30.9598242 L30.8439844,26.4501562 L41.6986523,30.7263867 C41.8526367,30.7870312 42.0164648,30.8181445 42.181875,30.8181445 L55.3920117,30.8181445 C55.8453516,30.8181445 56.2449023,30.5892773 56.482207,30.2410547 L56.4837891,30.2389453 C56.484668,30.2377148 56.4855469,30.2363086 56.4864258,30.2350781 L57.9793359,28.0393945 C58.1920312,27.7265039 58.2602344,27.3371484 58.1661914,26.9706445 C58.0723242,26.6041406 57.8255273,26.2956445 57.4883789,26.1237305 L54.1641797,24.4276172 L58.1269922,23.9728711 C59.8306641,23.7774023 61.1080664,22.2823828 61.0349414,20.5692187 C60.9939844,19.6050586 60.5339648,18.7117383 59.7730078,18.1183008 C59.011875,17.5246875 58.0333008,17.2961719 57.0886523,17.4914648 L55.3250391,17.855332 C53.9281055,18.1436133 52.7936133,19.1125195 52.29,20.4475781 L51.6352148,22.185 L48.6481641,23.0138086 C48.0193945,23.187832 47.3554688,22.9396289 46.9959961,22.3954102 L44.8674609,19.1736914 C44.6141602,18.7903125 44.1768164,18.5644336 43.7204883,18.5828906 L33.856875,18.9351562 C33.4487109,18.9497461 33.0704297,19.1525977 32.8324219,19.4844727 L29.8408008,23.6569922 L26.3998828,23.9436914 C26.3886328,23.9449219 26.3592773,23.947207 26.3297461,23.9189062 C26.3000391,23.8906055 26.3012695,23.8608984 26.3017969,23.8496484 L26.4515625,20.0917969 C26.4534961,20.0446875 26.4904102,20.0072461 26.5373437,20.0047852 L30.8612109,19.7783789 C31.4950781,19.7451562 32.0152148,19.2650977 32.0992383,18.6359766 L32.8754883,12.8133984 C32.8814648,12.7683984 32.9201367,12.7344727 32.9654883,12.7344727 L40.3036523,12.7344727 C40.4214258,12.7344727 40.5386719,12.7186523 40.6522266,12.6875391 L47.9325586,10.6913672 C48.3449414,10.5783398 48.6768164,10.2723047 48.8228906,9.87046875 L49.7622656,7.2871875 C50.0109961,6.60287109 49.6580273,5.84648437 48.9737109,5.59775391 C48.2897461,5.34919922 47.5331836,5.70199219 47.2842773,6.38613281 L46.5778125,8.32886719 L43.5601758,9.15626953 L45.2325586,2.63900391 C56.4614648,2.69894531 67.0092187,7.09751953 74.9559375,15.0440625 C82.7150977,22.8032227 87.0932812,33.0421289 87.3513281,43.9736133 L87.3462305,43.9720312 C86.9755078,43.8533789 86.6691211,43.599375 86.4840234,43.2569531 L84.5224805,39.6302344 C84.1761914,38.9898633 83.3763867,38.7509766 82.7356641,39.097793 C82.095293,39.444082 81.8569336,40.2440625 82.2033984,40.8846094 Z M41.6534766,26.6791992 C42.3,26.6791992 42.8375391,26.214082 42.9502148,25.6000781 C43.0472461,25.2833203 43.5000586,24.1120898 44.0523633,22.7237695 L44.7957422,23.8491211 C45.7876758,25.350293 47.6193164,26.0358398 49.3530469,25.5547266 L51.2571094,25.0263281 L51.2562305,25.0541016 C51.239707,25.5645703 51.5197266,26.0388281 51.9748242,26.2708594 L54.9583594,27.793125 L54.6943359,28.1816016 L42.4323633,28.1816016 L32.6142773,24.3138867 L34.597793,21.5472656 L41.7830273,21.290625 C40.3361719,24.8955469 40.3351172,25.0975195 40.3351172,25.3606641 C40.3351172,26.0889258 40.9252148,26.6791992 41.6534766,26.6791992 Z M54.6278906,21.7205859 L54.7569141,21.3778125 C54.939375,20.8937109 55.3508789,20.5423242 55.8574805,20.4377344 L57.6210938,20.0738672 C57.6687305,20.0640234 57.7137305,20.0598047 57.7562695,20.0598047 C57.9425977,20.0598047 58.0793555,20.141543 58.15125,20.1976172 C58.2394922,20.2665234 58.3892578,20.4208594 58.400332,20.681543 C58.4147461,21.0197461 58.1625,21.3148828 57.8260547,21.3533789 L54.6278906,21.7205859 Z" id="Shape"></path>
                    <path d="M68.5694531,61.2518555 C68.0116992,60.7833984 67.1802539,60.8556445 66.7119727,61.4133984 L63.0131836,65.8167187 C62.5449023,66.3741211 62.6173242,67.2057422 63.1747266,67.6740234 C63.421875,67.8816211 63.7226367,67.9828711 64.0219922,67.9828711 C64.3979883,67.9828711 64.7715234,67.8229102 65.032207,67.5124805 L68.7309961,63.1091602 C69.1992773,62.5517578 69.1268555,61.7201367 68.5694531,61.2518555 Z" id="Shape"></path>
                    <path d="M81.6867773,34.389668 C80.8662305,32.9139844 79.2601172,32.0932617 77.58,32.2943555 L71.1532617,33.0542578 L67.132793,29.4568945 C66.5479687,28.9337695 65.625293,29.0281641 65.1650977,29.6954297 C64.7843555,30.2473828 64.9086328,31.0048242 65.4082031,31.4518359 L69.8366602,35.4142969 C70.1175586,35.6654883 70.4912695,35.784668 70.8667383,35.7414258 L73.1573437,35.4772266 L74.1255469,36.8022656 L65.7362109,42.4281445 C65.4894141,42.5935547 65.1547266,42.5227148 64.9963477,42.2713477 L59.4908789,33.5358984 C59.0953711,32.9080078 58.2579492,32.7281836 57.6383203,33.1451367 C57.0396094,33.5480273 56.9046094,34.3768359 57.289043,34.9875 L63.2591016,44.4694922 C63.4621289,44.791875 63.794707,45.0107227 64.1710547,45.0696094 L67.2250781,45.5468555 C67.2477539,45.5503711 67.2786914,45.5551172 67.2966211,45.6062695 C67.3145508,45.6574219 67.2936328,45.680625 67.2783398,45.6975 L60.4040625,53.2733203 C60.2277539,53.4673828 60.1136719,53.7096094 60.0757031,53.9690625 L59.0610937,60.9264844 C58.9642383,61.5907617 58.6376367,62.2054688 58.1412305,62.6575781 L48.6307617,71.3163867 C48.1185352,71.7829102 47.4547852,72.0399023 46.7615039,72.0399023 C45.6183984,72.0399023 44.5760156,71.3225391 44.1680273,70.2548438 L40.6597852,61.0795898 L39.778418,51.5111133 C39.5277539,48.7908984 37.2817969,46.6289648 34.5536719,46.4821875 L23.9066016,45.9098438 C23.2426758,45.8741602 22.689668,45.41625 22.5307617,44.7707813 L20.6092969,36.9648633 C20.4788672,36.434707 20.6467383,35.8755469 21.0476953,35.505 L22.0747852,34.5556055 C22.6049414,34.0657031 22.6894922,33.2298633 22.2154102,32.685293 C21.7248047,32.1219141 20.8698047,32.0786719 20.3254102,32.5819336 L19.2580664,33.568418 C18.1524023,34.5902344 17.6892187,36.1332422 18.0492187,37.5948633 L19.9706836,45.4007813 C20.409082,47.1816211 21.9339844,48.444082 23.7652734,48.5426953 L34.412168,49.1150391 C35.8432031,49.1920313 37.0214648,50.3261719 37.1527734,51.7529883 L38.0506641,61.5019922 C38.0617383,61.621875 38.0891602,61.7394727 38.1320508,61.8519727 L41.7049805,71.1965039 C42.5007422,73.2781055 44.5329492,74.6766211 46.7615039,74.6766211 C48.1129102,74.6766211 49.4071875,74.1756445 50.4058008,73.2661523 L59.9162695,64.6075195 C60.8628516,63.7458398 61.4858203,62.5737305 61.6703906,61.3072266 L62.6269922,54.7477734 L69.2310937,47.4697266 C69.905918,46.7259961 70.1173828,45.6757031 69.7828711,44.7287695 C69.6063867,44.2288477 69.2924414,43.8032813 68.8904297,43.4889844 L76.708125,38.2452539 C76.8652734,38.1399609 77.0064258,38.0088281 77.1078516,37.8492188 C77.4117773,37.3703906 77.3762695,36.7825781 77.064082,36.3552539 L76.1619727,35.1207422 L77.8939453,34.9129688 C78.5104102,34.8387891 79.097168,35.1435938 79.3917773,35.6885156 C79.6303125,36.1297266 80.0840039,36.3800391 80.5526367,36.3800391 C80.815957,36.3800391 81.0841992,36.3009375 81.3213281,36.1320117 C81.8711719,35.7401953 82.0149609,34.9795898 81.6867773,34.389668 Z" id="Shape"></path>
                    <path d="M68.637832,23.8301367 L65.7022852,19.4855273 C65.2944727,18.8822461 64.4749805,18.7236914 63.8716992,19.1311523 C63.268418,19.5387891 63.1098633,20.3582812 63.5173242,20.9615625 L66.4528711,25.3063477 C66.7077539,25.6835742 67.1233008,25.8867773 67.546582,25.8867773 C67.8004102,25.8867773 68.0572266,25.8134766 68.283457,25.6605469 C68.8867383,25.2529102 69.045293,24.433418 68.637832,23.8301367 Z" id="Shape"></path>
                </g>
            </g>
        </g>
    </g>
</svg>