<?xml version="1.0" encoding="UTF-8"?>
<svg width="100px" height="100px" viewBox="0 0 100 100" version="1.1" xmlns="http://www.w3.org/2000/svg" xmlns:xlink="http://www.w3.org/1999/xlink">
    <!-- Generator: Sketch 52.6 (67491) - http://www.bohemiancoding.com/sketch -->
    <title>003-ticket</title>
    <desc>Created with Sketch.</desc>
    <g id="4peak" stroke="none" stroke-width="1" fill="none" fill-rule="evenodd" fill-opacity="0.2">
        <g id="4peak-1280" transform="translate(-783.000000, -2836.000000)" fill="#454A59" fill-rule="nonzero">
            <g id="Group-2" transform="translate(280.000000, 2836.000000)">
                <g id="003-ticket" transform="translate(503.000000, 0.000000)">
                    <path d="M99.5365854,62.1346341 L79.7097561,42.3078049 C79.2578049,41.8558537 78.5382927,41.8170732 78.0426829,42.2192683 C75.697561,44.112439 72.3182927,43.93 70.1853659,41.7970732 C68.0512195,39.6629268 67.8687805,36.2836585 69.7619512,33.9385366 C70.1626829,33.4426829 70.1241463,32.7221951 69.6731707,32.2714634 L37.7682927,0.366097561 C37.28,-0.122195122 36.4907317,-0.122195122 36.002439,0.366097561 L0.366097561,36.0026829 C0.131219512,36.237561 0.000243902439,36.5546341 0.000243902439,36.8856098 C0.000243902439,37.2165854 0.131463415,37.534878 0.366097561,37.7685366 L32.2712195,69.672439 C32.7231707,70.1243902 33.4426829,70.1607317 33.9382927,69.7612195 C36.2834146,67.8680488 39.6614634,68.0504878 41.7956098,70.1834146 C43.9297561,72.317561 44.1107317,75.6956098 42.2178049,78.0407317 C41.8170732,78.5365854 41.8556098,79.2570732 42.3065854,79.7078049 L62.1334146,99.5346341 C62.3795122,99.7807317 62.6990244,99.9029268 63.017561,99.9029268 C63.3360976,99.9029268 63.6568293,99.7804878 63.9004878,99.5370732 L99.5365854,63.9004878 C99.7714634,63.6656098 99.902439,63.3485366 99.902439,63.017561 C99.9026829,62.6865854 99.7714634,62.3680488 99.5365854,62.1346341 Z M63.0173171,96.8868293 L44.8139024,78.6834146 C46.6009756,75.7387805 46.3773171,72.004878 44.2795122,69.2687805 L46.9507317,66.597561 C47.4390244,66.1092683 47.4390244,65.32 46.9507317,64.8317073 C46.462439,64.3434146 45.6731707,64.3434146 45.184878,64.8317073 L42.4963415,67.5202439 C39.7814634,65.5782927 36.1612195,65.4285366 33.2965854,67.1668293 L3.01585366,36.8856098 L36.8853659,3.01609756 L67.1658537,33.2965854 C65.427561,36.1612195 65.5773171,39.7814634 67.5192683,42.4963415 L64.9768293,45.0387805 C64.4885366,45.5270732 64.4885366,46.3163415 64.9768293,46.8046341 C65.2202439,47.0480488 65.54,47.1704878 65.8597561,47.1704878 C66.1795122,47.1704878 66.4990244,47.0480488 66.7426829,46.8046341 L69.2678049,44.2795122 C72.0039024,46.377561 75.7378049,46.6009756 78.6836585,44.8139024 L96.8882927,63.0185366 L63.0173171,96.8868293 Z" id="Shape"></path>
                    <path d="M54.6617073,57.1195122 C54.1734146,56.6312195 53.3841463,56.632439 52.8958537,57.1195122 L49.5541463,60.4612195 C49.0658537,60.9495122 49.0658537,61.7387805 49.5541463,62.2270732 C49.797561,62.4704878 50.1173171,62.5929268 50.4370732,62.5929268 C50.7568293,62.5929268 51.0763415,62.4704878 51.32,62.2270732 L54.6617073,58.8853659 C55.15,58.3970732 55.15,57.6078049 54.6617073,57.1195122 Z" id="Shape"></path>
                    <path d="M62.3729268,49.4082927 C61.8846341,48.92 61.0953659,48.92 60.6070732,49.4082927 L57.2653659,52.75 C56.7770732,53.2382927 56.7770732,54.027561 57.2653659,54.5158537 C57.5087805,54.7604878 57.8285366,54.8817073 58.1482927,54.8817073 C58.4680488,54.8817073 58.787561,54.7592683 59.0312195,54.5158537 L62.3729268,51.1741463 C62.8612195,50.6858537 62.8612195,49.8965854 62.3729268,49.4082927 Z" id="Shape"></path>
                    <path d="M78.1139024,67.1697561 C78.0402439,66.7002439 77.7043902,66.3131707 77.2509756,66.1719512 L72.0073171,64.5421951 L70.377561,59.2985366 C70.2363415,58.845122 69.8492683,58.5104878 69.3797561,58.4356098 C68.9090244,58.3582927 68.4395122,58.5604878 68.1646341,58.947561 L64.9939024,63.4307317 L59.5029268,63.3607317 C59.0246341,63.3419512 58.59,63.6192683 58.3753659,64.0439024 C58.1592683,64.4673171 58.2029268,64.9768293 58.4878049,65.357561 L61.7707317,69.7582927 L60.007561,74.9582927 C59.855122,75.4090244 59.9714634,75.9060976 60.3073171,76.2419512 C60.6431707,76.5790244 61.1402439,76.6953659 61.5909756,76.5417073 L66.7909756,74.7770732 L71.1917073,78.0614634 C71.4114634,78.2263415 71.674878,78.31 71.9385366,78.31 C72.1321951,78.31 72.3268293,78.265122 72.5056098,78.1739024 C72.9290244,77.9578049 73.1936585,77.5207317 73.1873171,77.045122 L73.1173171,71.5553659 L77.6004878,68.3846341 C77.9890244,68.11 78.187561,67.6392683 78.1139024,67.1697561 Z M71.1382927,69.8958537 C70.802439,70.1331707 70.605122,70.5202439 70.61,70.9312195 L70.6560976,74.5490244 L67.757561,72.3860976 C67.5390244,72.222439 67.2768293,72.137561 67.0107317,72.137561 C66.8758537,72.137561 66.7409756,72.16 66.6097561,72.2036585 L63.1843902,73.365122 L64.3458537,69.9397561 C64.4770732,69.5502439 64.4095122,69.1204878 64.1634146,68.7921951 L62.0004878,65.892439 L65.6182927,65.9385366 C66.0029268,65.9397561 66.4163415,65.747561 66.6534146,65.4114634 L68.7414634,62.4580488 L69.8153659,65.9121951 C69.9378049,66.3043902 70.244878,66.6126829 70.6370732,66.7339024 L74.0912195,67.8078049 L71.1382927,69.8958537 Z" id="Shape"></path>
                    <path d="M36.2834146,54.1160976 L16.882439,34.715122 C16.3941463,34.2268293 15.604878,34.2268293 15.1165854,34.715122 C14.6282927,35.2034146 14.6282927,35.9926829 15.1165854,36.4809756 L34.517561,55.8831707 C34.7609756,56.1265854 35.0807317,56.2478049 35.4004878,56.2478049 C35.7202439,56.2478049 36.0397561,56.1253659 36.2834146,55.8819512 C36.7717073,55.3936585 36.7717073,54.6043902 36.2834146,54.1160976 Z" id="Shape"></path>
                    <path d="M42.8170732,47.5839024 L23.414878,28.1817073 C22.9265854,27.6934146 22.1373171,27.6934146 21.6490244,28.1817073 C21.1607317,28.67 21.1607317,29.4592683 21.6490244,29.947561 L41.0512195,49.3497561 C41.2946341,49.5931707 41.6143902,49.7156098 41.9341463,49.7156098 C42.2539024,49.7156098 42.5734146,49.5931707 42.8170732,49.3497561 C43.3053659,48.8614634 43.3053659,48.0721951 42.8170732,47.5839024 Z" id="Shape"></path>
                    <path d="M49.3495122,41.0502439 L29.9485366,21.6492683 C29.4602439,21.1609756 28.6709756,21.1609756 28.1826829,21.6492683 C27.6943902,22.137561 27.6943902,22.9268293 28.1826829,23.415122 L47.5836585,42.8160976 C47.8270732,43.0595122 48.1468293,43.1819512 48.4665854,43.1819512 C48.7863415,43.1819512 49.1058537,43.0595122 49.3495122,42.8160976 C49.8378049,42.3278049 49.8378049,41.5385366 49.3495122,41.0502439 Z" id="Shape"></path>
                    <path d="M55.8831707,34.5178049 L36.4809756,15.1156098 C35.9926829,14.6273171 35.2034146,14.6273171 34.715122,15.1156098 C34.2268293,15.6039024 34.2268293,16.3931707 34.715122,16.8814634 L54.1173171,36.2836585 C54.3607317,36.5270732 54.6804878,36.6495122 55.0002439,36.6495122 C55.32,36.6495122 55.6395122,36.5270732 55.8831707,36.2836585 C56.3714634,35.7953659 56.3714634,35.0060976 55.8831707,34.5178049 Z" id="Shape"></path>
                </g>
            </g>
        </g>
    </g>
</svg>