<?xml version="1.0" encoding="UTF-8"?>
<svg width="83px" height="100px" viewBox="0 0 83 100" version="1.1" xmlns="http://www.w3.org/2000/svg" xmlns:xlink="http://www.w3.org/1999/xlink">
    <!-- Generator: Sketch 52.6 (67491) - http://www.bohemiancoding.com/sketch -->
    <title>009-cable-car-cabin</title>
    <desc>Created with Sketch.</desc>
    <g id="4peak" stroke="none" stroke-width="1" fill="none" fill-rule="evenodd" fill-opacity="0.2">
        <g id="4peak-1280" transform="translate(-280.000000, -2836.000000)" fill="#454A59" fill-rule="nonzero">
            <g id="Group-2" transform="translate(280.000000, 2836.000000)">
                <g id="009-cable-car-cabin">
                    <path d="M64.8442584,44.6624402 C64.2318182,43.4375598 63.1294258,42.8251196 61.7820574,42.8251196 L21.2385167,42.8251196 C20.0136364,42.8251196 18.788756,43.5600478 18.1763158,44.6624402 C16.2165072,48.5820574 11.6844498,58.8710526 11.6844498,68.5476077 C11.6844498,69.2825359 12.29689,69.772488 12.9093301,69.772488 L70.111244,69.772488 C70.8461722,69.772488 71.3361244,69.2825359 71.3361244,68.5476077 C71.3361244,58.8710526 66.804067,48.7045455 64.8442584,44.6624402 Z M40.9590909,67.4452153 L14.1342105,67.4452153 C14.6241627,58.3811005 19.0337321,48.7045455 20.3811005,45.8873206 C20.5035885,45.5198565 20.8710526,45.3973684 21.2385167,45.3973684 L40.9590909,45.3973684 L40.9590909,67.4452153 Z M43.4088517,67.3227273 L43.4088517,45.2748804 L61.7820574,45.2748804 C62.1495215,45.2748804 62.3944976,45.5198565 62.6394737,45.7648325 C63.9868421,48.5820574 68.5188995,58.2586124 68.8863636,67.3227273 L43.4088517,67.3227273 Z" id="Shape"></path>
                    <path d="M82.85,0.811722488 C82.6050239,0.199282297 81.8700957,-0.168181818 81.2576555,0.0767942584 L0.905502392,30.9437799 C0.293062201,31.188756 -0.0744019139,31.9236842 0.170574163,32.5361244 C0.415550239,33.0260766 0.783014354,33.2710526 1.27296651,33.2710526 C1.39545455,33.2710526 1.51794258,33.2710526 1.76291866,33.1485646 L36.4270335,19.9198565 C36.1820574,20.5322967 36.0595694,21.1447368 36.0595694,21.8796651 C36.0595694,24.819378 38.141866,27.2691388 40.8366029,27.7590909 L40.8366029,32.6586124 L40.8366029,32.7811005 L23.0758373,32.7811005 C20.3811005,32.7811005 18.1763158,34.9858852 18.1763158,37.680622 L16.9514354,37.680622 C15.4815789,37.680622 14.2566986,38.5380383 13.6442584,39.8854067 C11.3169856,44.6624402 6.05,57.0337321 6.05,68.6700957 C6.05,80.3064593 11.4394737,92.6777512 13.6442584,97.5772727 C14.2566986,98.9246411 15.604067,99.7820574 17.0739234,99.7820574 L65.9466507,99.7820574 C67.4165072,99.7820574 68.6413876,98.9246411 69.3763158,97.5772727 C71.7035885,92.8002392 76.9705742,80.3064593 76.9705742,68.6700957 C76.9705742,57.0337321 71.5811005,44.6624402 69.3763158,39.8854067 C68.7638756,38.5380383 67.4165072,37.680622 66.0691388,37.680622 L63.9868421,37.680622 C63.9868421,34.9858852 61.7820574,32.7811005 59.0873206,32.7811005 L43.4088517,32.7811005 L43.4088517,32.6586124 L43.4088517,27.7590909 C46.1035885,27.1466507 48.1858852,24.69689 48.1858852,21.8796651 C48.1858852,19.6748804 46.9610048,17.7150718 45.1236842,16.6126794 L82.1150718,2.40406699 C82.85,2.15909091 83.0949761,1.54665072 82.85,0.811722488 Z M65.9466507,40.2528708 C66.4366029,40.2528708 66.926555,40.4978469 67.1715311,40.987799 C68.8863636,44.5399522 74.5208134,57.2787081 74.5208134,68.6700957 C74.5208134,80.0614833 68.8863636,92.8002392 67.1715311,96.4748804 C66.926555,96.9648325 66.5590909,97.2098086 66.0691388,97.2098086 L17.0739234,97.2098086 C16.5839713,97.2098086 16.0940191,96.9648325 15.9715311,96.4748804 C14.2566986,92.8002392 8.6222488,80.0614833 8.6222488,68.6700957 C8.6222488,57.2787081 14.2566986,44.5399522 15.9715311,40.987799 C16.2165072,40.4978469 16.7064593,40.2528708 17.0739234,40.2528708 L65.9466507,40.2528708 Z M59.0873206,35.3533493 C60.434689,35.3533493 61.5370813,36.4557416 61.5370813,37.80311 L20.7485646,37.80311 C20.7485646,36.4557416 21.8509569,35.3533493 23.1983254,35.3533493 L59.0873206,35.3533493 Z M45.7361244,21.8796651 C45.7361244,23.8394737 44.1437799,25.4318182 42.1839713,25.4318182 C40.2241627,25.4318182 38.6318182,23.8394737 38.6318182,21.8796651 C38.6318182,19.9198565 40.2241627,18.327512 42.1839713,18.327512 C44.1437799,18.327512 45.7361244,19.9198565 45.7361244,21.8796651 Z" id="Shape"></path>
                </g>
            </g>
        </g>
    </g>
</svg>